<svg xmlns="http://www.w3.org/2000/svg" version="1.1" xmlns:xlink="http://www.w3.org/1999/xlink" width="1000" height="1000"><style>
    #light-icon {
      display: inline;
    }
    #dark-icon {
      display: none;
    }

    @media (prefers-color-scheme: dark) {
      #light-icon {
        display: none;
      }
      #dark-icon {
        display: inline;
      }
    }
  </style><g id="light-icon"><svg xmlns="http://www.w3.org/2000/svg" version="1.1" xmlns:xlink="http://www.w3.org/1999/xlink" width="1000" height="1000"><g><g transform="matrix(10.75268817204301,0,0,10.75268817204301,5.684341886080802e-14,102.15053763440864)"><svg xmlns="http://www.w3.org/2000/svg" width="93" height="74" viewBox="0 0 93 74" fill="none"><ellipse cx="46.3415" cy="41.389" rx="35.3752" ry="27.9464" fill="white"></ellipse><circle cx="27.9347" cy="37.99" r="4.46941" fill="#FFA8BA"></circle><circle cx="63.6901" cy="37.99" r="4.46941" fill="#FFA8BA"></circle><path d="M46.1219 0C61.5954 0.00108972 74.8403 9.53527 80.3104 23.0479L81.6834 25.0723C83.6532 27.9801 85.8227 31.4382 87.6756 34.8086C89.5186 38.1612 91.0891 41.4998 91.8094 44.1504C92.1654 45.4609 92.3492 46.7271 92.1717 47.7842C92.0805 48.3269 91.8844 48.8619 91.5272 49.3145C91.1614 49.7768 90.6687 50.0974 90.0916 50.2676C88.996 50.589 87.6298 50.3673 86.0868 49.8076C84.7924 49.3378 83.2492 48.5798 81.4295 47.5156C76.8613 62.6894 62.7841 73.7439 46.1219 73.7451C29.4595 73.7447 15.377 62.6912 10.8075 47.5176C8.98891 48.5806 7.4458 49.3382 6.15219 49.8076C4.60898 50.3672 3.24387 50.5893 2.14828 50.2676C1.57071 50.0974 1.07767 49.7774 0.711757 49.3145C0.354546 48.8619 0.159453 48.327 0.0682023 47.7842C-0.109333 46.727 0.0764139 45.4611 0.43246 44.1504C1.15279 41.4997 2.72122 38.1613 4.5643 34.8086C6.4172 31.4382 8.58663 27.9802 10.5565 25.0723L11.9246 23.0498C17.3949 9.53493 30.6464 0.000380988 46.1219 0ZM75.5555 34.3604C68.6179 28.2902 62.5227 27.1288 57.7127 27.9727C52.8444 28.8279 49.0905 31.7745 46.9705 34.2471L46.1151 35.2441L45.2684 34.2432C40.6526 28.7884 34.925 27.6504 29.6131 28.4512C24.2424 29.2619 19.3457 32.0593 16.6844 34.3652L16.0145 34.9434C15.9742 35.5812 15.9539 36.225 15.9539 36.873C15.9542 53.5342 29.4609 67.0405 46.1219 67.041C62.7822 67.0396 76.2906 53.5336 76.2909 36.873C76.2909 36.2273 76.2674 35.5859 76.2274 34.9502L75.5555 34.3604Z" fill="black"></path><path d="M47.4565 41.9402C46.5147 42.6325 45.11 42.6325 44.1682 41.9402L37.7342 37.2104C35.9945 35.9316 37.0689 33.5206 39.3783 33.5206L52.2464 33.5206C54.5559 33.5206 55.6302 35.9316 53.8906 37.2104L47.4565 41.9402Z" fill="#FAAE2B"></path></svg></g></g></svg></g><g id="dark-icon"><svg xmlns="http://www.w3.org/2000/svg" version="1.1" xmlns:xlink="http://www.w3.org/1999/xlink" width="1000" height="1000"><g clip-path="url(#SvgjsClipPath1009)"><rect width="1000" height="1000" fill="#ffffff"></rect><g transform="matrix(7.526881720430108,0,0,7.526881720430108,150,221.50537634408602)"><svg xmlns="http://www.w3.org/2000/svg" width="93" height="74" viewBox="0 0 93 74" fill="none"><ellipse cx="46.3415" cy="41.389" rx="35.3752" ry="27.9464" fill="white"></ellipse><circle cx="27.9347" cy="37.99" r="4.46941" fill="#FFA8BA"></circle><circle cx="63.6901" cy="37.99" r="4.46941" fill="#FFA8BA"></circle><path d="M46.1219 0C61.5954 0.00108972 74.8403 9.53527 80.3104 23.0479L81.6834 25.0723C83.6532 27.9801 85.8227 31.4382 87.6756 34.8086C89.5186 38.1612 91.0891 41.4998 91.8094 44.1504C92.1654 45.4609 92.3492 46.7271 92.1717 47.7842C92.0805 48.3269 91.8844 48.8619 91.5272 49.3145C91.1614 49.7768 90.6687 50.0974 90.0916 50.2676C88.996 50.589 87.6298 50.3673 86.0868 49.8076C84.7924 49.3378 83.2492 48.5798 81.4295 47.5156C76.8613 62.6894 62.7841 73.7439 46.1219 73.7451C29.4595 73.7447 15.377 62.6912 10.8075 47.5176C8.98891 48.5806 7.4458 49.3382 6.15219 49.8076C4.60898 50.3672 3.24387 50.5893 2.14828 50.2676C1.57071 50.0974 1.07767 49.7774 0.711757 49.3145C0.354546 48.8619 0.159453 48.327 0.0682023 47.7842C-0.109333 46.727 0.0764139 45.4611 0.43246 44.1504C1.15279 41.4997 2.72122 38.1613 4.5643 34.8086C6.4172 31.4382 8.58663 27.9802 10.5565 25.0723L11.9246 23.0498C17.3949 9.53493 30.6464 0.000380988 46.1219 0ZM75.5555 34.3604C68.6179 28.2902 62.5227 27.1288 57.7127 27.9727C52.8444 28.8279 49.0905 31.7745 46.9705 34.2471L46.1151 35.2441L45.2684 34.2432C40.6526 28.7884 34.925 27.6504 29.6131 28.4512C24.2424 29.2619 19.3457 32.0593 16.6844 34.3652L16.0145 34.9434C15.9742 35.5812 15.9539 36.225 15.9539 36.873C15.9542 53.5342 29.4609 67.0405 46.1219 67.041C62.7822 67.0396 76.2906 53.5336 76.2909 36.873C76.2909 36.2273 76.2674 35.5859 76.2274 34.9502L75.5555 34.3604Z" fill="black"></path><path d="M47.4565 41.9402C46.5147 42.6325 45.11 42.6325 44.1682 41.9402L37.7342 37.2104C35.9945 35.9316 37.0689 33.5206 39.3783 33.5206L52.2464 33.5206C54.5559 33.5206 55.6302 35.9316 53.8906 37.2104L47.4565 41.9402Z" fill="#FAAE2B"></path></svg></g></g><defs><clipPath id="SvgjsClipPath1009"><rect width="1000" height="1000" x="0" y="0" rx="350" ry="350"></rect></clipPath></defs></svg></g></svg>