<svg width="251" height="251" viewBox="0 0 251 251" fill="none" xmlns="http://www.w3.org/2000/svg">
<circle cx="125.5" cy="125.5" r="125.5" fill="white"/>
<ellipse cx="126.997" cy="134.883" rx="79.387" ry="62.7157" fill="white"/>
<circle cx="85.6892" cy="127.255" r="10.03" fill="#FFA8BA"/>
<circle cx="165.929" cy="127.255" r="10.03" fill="#FFA8BA"/>
<path d="M126.505 42C161.23 42.0021 190.953 63.3975 203.229 93.7217L206.31 98.2666C210.73 104.792 215.6 112.551 219.758 120.114C223.894 127.638 227.417 135.132 229.033 141.08C229.832 144.021 230.245 146.862 229.847 149.234C229.642 150.453 229.203 151.652 228.401 152.668C227.58 153.706 226.474 154.426 225.179 154.808C222.72 155.529 219.655 155.03 216.192 153.774C213.287 152.72 209.825 151.02 205.741 148.632C195.489 182.684 163.897 207.493 126.505 207.495C89.1121 207.494 57.5095 182.689 47.2549 148.637C43.1737 151.022 39.7117 152.721 36.8086 153.774C33.3445 155.031 30.2804 155.53 27.8213 154.808C26.525 154.426 25.4198 153.707 24.5986 152.668C23.797 151.652 23.3591 150.453 23.1543 149.234C22.7559 146.862 23.1727 144.021 23.9717 141.08C25.5882 135.131 29.1069 127.639 33.2432 120.114C37.4013 112.55 42.2708 104.793 46.6914 98.2666L49.7617 93.7266C62.0378 63.3972 91.7755 42.0008 126.505 42ZM192.557 119.11C176.987 105.488 163.31 102.881 152.516 104.775C141.59 106.695 133.168 113.307 128.41 118.855L126.49 121.094L124.59 118.846C114.231 106.604 101.377 104.05 89.4561 105.848C77.403 107.667 66.4156 113.945 60.4434 119.12L58.9395 120.418C58.8491 121.849 58.8027 123.293 58.8027 124.747C58.8027 162.137 89.1148 192.449 126.505 192.45C163.894 192.447 194.207 162.136 194.207 124.747C194.207 123.298 194.155 121.859 194.065 120.433L192.557 119.11Z" fill="black"/>
<path d="M129.499 136.12C127.385 137.673 124.233 137.673 122.119 136.12L107.68 125.505C103.776 122.635 106.187 117.225 111.37 117.225L140.248 117.225C145.431 117.225 147.842 122.635 143.938 125.505L129.499 136.12Z" fill="#FAAE2B"/>
</svg>
