<svg width="319" height="43" viewBox="0 0 319 43" fill="none" xmlns="http://www.w3.org/2000/svg">
<ellipse cx="23.3649" cy="21.5" rx="15.2736" ry="14.5" fill="white"/>
<path d="M23.5054 6.5C31.9815 6.5 38.8062 13.2412 38.8062 21.5C38.8062 29.7588 31.9815 36.5 23.5054 36.5C15.0293 36.4999 8.20459 29.7588 8.20459 21.5C8.20459 13.2412 15.0293 6.50007 23.5054 6.5Z" stroke="black" stroke-width="3"/>
<path d="M23.5055 20C19.0252 14.8 12.3049 17.8333 9.75928 20C11.3885 9.60001 19.2628 8 22.9964 8C33.586 8.4 36.9123 16.1667 37.2517 20C30.735 14.4 25.542 17.6667 23.5055 20Z" fill="black" stroke="black"/>
<ellipse cx="15.2186" cy="22" rx="2.03647" ry="2" fill="#FFA8BA"/>
<ellipse cx="31.5106" cy="22" rx="2.03647" ry="2" fill="#FFA8BA"/>
<path d="M7.72266 16.5C4.15883 21.6667 -0.830532 30.7 7.72266 25.5V16.5Z" fill="black" stroke="black"/>
<path d="M39.2881 16.5C42.8519 21.6667 47.8413 30.7 39.2881 25.5V16.5Z" fill="black" stroke="black"/>
<path d="M24.1141 23.7676C23.685 24.0775 23.0449 24.0775 22.6158 23.7676L19.6841 21.6511C18.8915 21.0789 19.381 20 20.4333 20L26.2966 20C27.3489 20 27.8384 21.0789 27.0458 21.6511L24.1141 23.7676Z" fill="#FAAE2B"/>
<path d="M55.9987 34V8.8H60.1747V30.184H71.5867V34H55.9987ZM82.3606 34.432C80.6086 34.432 79.0486 34.036 77.6806 33.244C76.3366 32.428 75.2686 31.312 74.4766 29.896C73.7086 28.48 73.3246 26.848 73.3246 25C73.3246 23.152 73.7206 21.52 74.5126 20.104C75.3046 18.688 76.3846 17.584 77.7526 16.792C79.1446 15.976 80.7286 15.568 82.5046 15.568C84.1126 15.568 85.5646 15.988 86.8606 16.828C88.1566 17.644 89.1766 18.832 89.9206 20.392C90.6886 21.952 91.0726 23.812 91.0726 25.972H76.9246L77.4646 25.468C77.4646 26.572 77.7046 27.532 78.1846 28.348C78.6646 29.14 79.3006 29.752 80.0926 30.184C80.8846 30.616 81.7606 30.832 82.7206 30.832C83.8246 30.832 84.7366 30.592 85.4566 30.112C86.1766 29.608 86.7406 28.96 87.1486 28.168L90.7126 29.68C90.2086 30.64 89.5606 31.48 88.7686 32.2C88.0006 32.92 87.0766 33.472 85.9966 33.856C84.9406 34.24 83.7286 34.432 82.3606 34.432ZM77.7166 23.38L77.1406 22.876H87.2926L86.7526 23.38C86.7526 22.396 86.5366 21.592 86.1046 20.968C85.6726 20.32 85.1206 19.84 84.4486 19.528C83.8006 19.192 83.1166 19.024 82.3966 19.024C81.6766 19.024 80.9566 19.192 80.2366 19.528C79.5166 19.84 78.9166 20.32 78.4366 20.968C77.9566 21.592 77.7166 22.396 77.7166 23.38ZM103.6 34V8.8H112.492C114.22 8.8 115.744 9.136 117.064 9.808C118.384 10.48 119.416 11.416 120.16 12.616C120.904 13.792 121.276 15.16 121.276 16.72C121.276 18.28 120.88 19.66 120.088 20.86C119.32 22.06 118.252 23.008 116.884 23.704C115.516 24.376 113.968 24.712 112.24 24.712H107.776V34H103.6ZM117.568 34L111.664 23.776L114.904 21.544L122.284 34H117.568ZM107.776 20.86H112.672C113.488 20.86 114.208 20.68 114.832 20.32C115.48 19.96 115.996 19.468 116.38 18.844C116.788 18.22 116.992 17.512 116.992 16.72C116.992 15.52 116.56 14.536 115.696 13.768C114.832 13 113.716 12.616 112.348 12.616H107.776V20.86ZM133.794 34.432C132.042 34.432 130.482 34.036 129.114 33.244C127.77 32.428 126.702 31.312 125.91 29.896C125.142 28.48 124.758 26.848 124.758 25C124.758 23.152 125.154 21.52 125.946 20.104C126.738 18.688 127.818 17.584 129.186 16.792C130.578 15.976 132.162 15.568 133.938 15.568C135.546 15.568 136.998 15.988 138.294 16.828C139.59 17.644 140.61 18.832 141.354 20.392C142.122 21.952 142.506 23.812 142.506 25.972H128.358L128.898 25.468C128.898 26.572 129.138 27.532 129.618 28.348C130.098 29.14 130.734 29.752 131.526 30.184C132.318 30.616 133.194 30.832 134.154 30.832C135.258 30.832 136.17 30.592 136.89 30.112C137.61 29.608 138.174 28.96 138.582 28.168L142.146 29.68C141.642 30.64 140.994 31.48 140.202 32.2C139.434 32.92 138.51 33.472 137.43 33.856C136.374 34.24 135.162 34.432 133.794 34.432ZM129.15 23.38L128.574 22.876H138.726L138.186 23.38C138.186 22.396 137.97 21.592 137.538 20.968C137.106 20.32 136.554 19.84 135.882 19.528C135.234 19.192 134.55 19.024 133.83 19.024C133.11 19.024 132.39 19.192 131.67 19.528C130.95 19.84 130.35 20.32 129.87 20.968C129.39 21.592 129.15 22.396 129.15 23.38ZM152.758 34.432C150.862 34.432 149.41 33.964 148.402 33.028C147.418 32.068 146.926 30.7 146.926 28.924V10.384H150.922V28.168C150.922 29.008 151.114 29.644 151.498 30.076C151.906 30.508 152.494 30.724 153.262 30.724C153.502 30.724 153.766 30.676 154.054 30.58C154.342 30.484 154.666 30.304 155.026 30.04L156.502 33.1C155.878 33.532 155.254 33.856 154.63 34.072C154.006 34.312 153.382 34.432 152.758 34.432ZM143.938 19.456V16H155.782V19.456H143.938ZM158.827 34V31.012L168.403 19.384H158.827V16H173.479V18.952L163.903 30.652H173.551V34H158.827ZM177.381 34V16H181.377V34H177.381ZM179.397 12.58C178.749 12.58 178.185 12.352 177.705 11.896C177.249 11.416 177.021 10.852 177.021 10.204C177.021 9.556 177.249 9.004 177.705 8.548C178.185 8.092 178.749 7.864 179.397 7.864C180.045 7.864 180.597 8.092 181.053 8.548C181.533 9.004 181.773 9.556 181.773 10.204C181.773 10.852 181.533 11.416 181.053 11.896C180.597 12.352 180.045 12.58 179.397 12.58ZM194.157 34.432C192.405 34.432 190.845 34.036 189.477 33.244C188.133 32.428 187.065 31.312 186.273 29.896C185.505 28.48 185.121 26.848 185.121 25C185.121 23.152 185.517 21.52 186.309 20.104C187.101 18.688 188.181 17.584 189.549 16.792C190.941 15.976 192.525 15.568 194.301 15.568C195.909 15.568 197.361 15.988 198.657 16.828C199.953 17.644 200.973 18.832 201.717 20.392C202.485 21.952 202.869 23.812 202.869 25.972H188.721L189.261 25.468C189.261 26.572 189.501 27.532 189.981 28.348C190.461 29.14 191.097 29.752 191.889 30.184C192.681 30.616 193.557 30.832 194.517 30.832C195.621 30.832 196.533 30.592 197.253 30.112C197.973 29.608 198.537 28.96 198.945 28.168L202.509 29.68C202.005 30.64 201.357 31.48 200.565 32.2C199.797 32.92 198.873 33.472 197.793 33.856C196.737 34.24 195.525 34.432 194.157 34.432ZM189.513 23.38L188.937 22.876H199.089L198.549 23.38C198.549 22.396 198.333 21.592 197.901 20.968C197.469 20.32 196.917 19.84 196.245 19.528C195.597 19.192 194.913 19.024 194.193 19.024C193.473 19.024 192.753 19.192 192.033 19.528C191.313 19.84 190.713 20.32 190.233 20.968C189.753 21.592 189.513 22.396 189.513 23.38ZM205.958 34V16H209.738L209.99 19.312V34H205.958ZM218.162 34V24.784H222.194V34H218.162ZM218.162 24.784C218.162 23.344 217.994 22.24 217.658 21.472C217.346 20.68 216.89 20.128 216.29 19.816C215.714 19.504 215.03 19.348 214.238 19.348C212.894 19.324 211.85 19.768 211.106 20.68C210.362 21.592 209.99 22.9 209.99 24.604H208.478C208.478 22.708 208.754 21.088 209.306 19.744C209.858 18.376 210.65 17.344 211.682 16.648C212.714 15.928 213.938 15.568 215.354 15.568C216.794 15.568 218.018 15.856 219.026 16.432C220.058 17.008 220.838 17.908 221.366 19.132C221.918 20.332 222.194 21.904 222.194 23.848V24.784H218.162ZM235.717 34V8.8H239.893V30.184H251.305V34H235.717ZM254.303 34V16H258.299V34H254.303ZM256.319 12.58C255.671 12.58 255.107 12.352 254.627 11.896C254.171 11.416 253.943 10.852 253.943 10.204C253.943 9.556 254.171 9.004 254.627 8.548C255.107 8.092 255.671 7.864 256.319 7.864C256.967 7.864 257.519 8.092 257.975 8.548C258.455 9.004 258.695 9.556 258.695 10.204C258.695 10.852 258.455 11.416 257.975 11.896C257.519 12.352 256.967 12.58 256.319 12.58ZM263.051 34V8.8H267.083V30.652L266.867 34H263.051ZM272.771 34.432C271.259 34.432 269.951 34.048 268.847 33.28C267.767 32.488 266.939 31.384 266.363 29.968C265.787 28.552 265.499 26.896 265.499 25C265.499 23.08 265.787 21.424 266.363 20.032C266.939 18.616 267.767 17.524 268.847 16.756C269.951 15.964 271.259 15.568 272.771 15.568C274.403 15.568 275.819 15.964 277.019 16.756C278.243 17.524 279.191 18.616 279.863 20.032C280.559 21.424 280.907 23.08 280.907 25C280.907 26.896 280.559 28.552 279.863 29.968C279.191 31.384 278.243 32.488 277.019 33.28C275.819 34.048 274.403 34.432 272.771 34.432ZM271.763 30.76C272.723 30.76 273.575 30.52 274.319 30.04C275.063 29.536 275.651 28.852 276.083 27.988C276.539 27.124 276.767 26.128 276.767 25C276.767 23.872 276.551 22.876 276.119 22.012C275.711 21.148 275.135 20.476 274.391 19.996C273.647 19.516 272.783 19.276 271.799 19.276C270.887 19.276 270.071 19.516 269.351 19.996C268.631 20.476 268.067 21.148 267.659 22.012C267.275 22.876 267.083 23.872 267.083 25C267.083 26.128 267.275 27.124 267.659 27.988C268.067 28.852 268.619 29.536 269.315 30.04C270.035 30.52 270.851 30.76 271.763 30.76ZM287.02 24.424C287.02 22.48 287.392 20.884 288.136 19.636C288.88 18.388 289.84 17.464 291.016 16.864C292.216 16.24 293.464 15.928 294.76 15.928V19.78C293.656 19.78 292.612 19.936 291.628 20.248C290.668 20.536 289.888 21.016 289.288 21.688C288.688 22.36 288.388 23.248 288.388 24.352L287.02 24.424ZM284.356 34V16H288.388V34H284.356ZM305.462 34.432C303.71 34.432 302.15 34.036 300.782 33.244C299.438 32.428 298.37 31.312 297.578 29.896C296.81 28.48 296.426 26.848 296.426 25C296.426 23.152 296.822 21.52 297.614 20.104C298.406 18.688 299.486 17.584 300.854 16.792C302.246 15.976 303.83 15.568 305.606 15.568C307.214 15.568 308.666 15.988 309.962 16.828C311.258 17.644 312.278 18.832 313.022 20.392C313.79 21.952 314.174 23.812 314.174 25.972H300.026L300.566 25.468C300.566 26.572 300.806 27.532 301.286 28.348C301.766 29.14 302.402 29.752 303.194 30.184C303.986 30.616 304.862 30.832 305.822 30.832C306.926 30.832 307.838 30.592 308.558 30.112C309.278 29.608 309.842 28.96 310.25 28.168L313.814 29.68C313.31 30.64 312.662 31.48 311.87 32.2C311.102 32.92 310.178 33.472 309.098 33.856C308.042 34.24 306.83 34.432 305.462 34.432ZM300.818 23.38L300.242 22.876H310.394L309.854 23.38C309.854 22.396 309.638 21.592 309.206 20.968C308.774 20.32 308.222 19.84 307.55 19.528C306.902 19.192 306.218 19.024 305.498 19.024C304.778 19.024 304.058 19.192 303.338 19.528C302.618 19.84 302.018 20.32 301.538 20.968C301.058 21.592 300.818 22.396 300.818 23.38Z" fill="black"/>
</svg>
