<svg width="503" height="503" viewBox="0 0 503 503" fill="none" xmlns="http://www.w3.org/2000/svg">
<path d="M251.5 0L281.186 160.137L399.328 48.0322L329.218 195.035L490.691 173.782L347.564 251.5L490.691 329.218L329.218 307.965L399.328 454.968L281.186 342.863L251.5 503L221.814 342.863L103.672 454.968L173.782 307.965L12.3093 329.218L155.436 251.5L12.3093 173.782L173.782 195.035L103.672 48.0322L221.814 160.137L251.5 0Z" fill="white"/>
<ellipse cx="252.309" cy="269.619" rx="62.0674" ry="49.0332" fill="white"/>
<circle cx="220.013" cy="263.655" r="7.84177" fill="#FFA8BA"/>
<circle cx="282.747" cy="263.655" r="7.84177" fill="#FFA8BA"/>
<path fill-rule="evenodd" clip-rule="evenodd" d="M251.923 197C279.072 197.002 302.311 213.729 311.908 237.438L314.317 240.991C317.773 246.093 321.58 252.159 324.831 258.072C328.065 263.955 330.819 269.813 332.083 274.464C332.708 276.763 333.03 278.985 332.719 280.84C332.559 281.792 332.216 282.729 331.589 283.523C330.947 284.335 330.083 284.899 329.069 285.197C327.147 285.761 324.751 285.371 322.043 284.389C319.772 283.564 317.065 282.235 313.872 280.368C305.857 306.992 281.158 326.388 251.923 326.39C222.688 326.389 197.979 306.995 189.962 280.372C186.771 282.237 184.065 283.565 181.795 284.389C179.087 285.371 176.691 285.762 174.769 285.197C173.755 284.899 172.891 284.336 172.249 283.523C171.623 282.729 171.28 281.792 171.12 280.84C170.809 278.985 171.134 276.764 171.759 274.464C173.023 269.813 175.774 263.955 179.008 258.072C182.259 252.159 186.065 246.093 189.522 240.991L191.923 237.441C201.521 213.729 224.77 197.001 251.923 197ZM303.565 257.287C291.392 246.636 280.698 244.599 272.259 246.08C263.717 247.581 257.132 252.75 253.412 257.088L251.911 258.838L250.426 257.081C242.327 247.51 232.277 245.514 222.957 246.919C213.534 248.341 204.943 253.249 200.274 257.295L199.099 258.31C199.028 259.429 198.991 260.557 198.991 261.694C198.991 290.927 222.69 314.626 251.923 314.627C281.155 314.625 304.855 290.927 304.855 261.694C304.855 260.561 304.814 259.437 304.744 258.321L303.565 257.287Z" fill="black"/>
<path d="M254.265 270.586C252.612 271.8 250.148 271.8 248.495 270.586L237.206 262.287C234.154 260.043 236.039 255.813 240.091 255.813L262.669 255.813C266.721 255.813 268.606 260.043 265.553 262.287L254.265 270.586Z" fill="#FAAE2B"/>
<path d="M80.8043 369V335.4H86.3723V363.912H101.588V369H80.8043ZM115.953 369.576C113.617 369.576 111.537 369.048 109.713 367.992C107.921 366.904 106.497 365.416 105.441 363.528C104.417 361.64 103.905 359.464 103.905 357C103.905 354.536 104.433 352.36 105.489 350.472C106.545 348.584 107.985 347.112 109.809 346.056C111.665 344.968 113.777 344.424 116.145 344.424C118.289 344.424 120.225 344.984 121.953 346.104C123.681 347.192 125.041 348.776 126.033 350.856C127.057 352.936 127.569 355.416 127.569 358.296H108.705L109.425 357.624C109.425 359.096 109.745 360.376 110.385 361.464C111.025 362.52 111.873 363.336 112.929 363.912C113.985 364.488 115.153 364.776 116.433 364.776C117.905 364.776 119.121 364.456 120.081 363.816C121.041 363.144 121.793 362.28 122.337 361.224L127.089 363.24C126.417 364.52 125.553 365.64 124.497 366.6C123.473 367.56 122.241 368.296 120.801 368.808C119.393 369.32 117.777 369.576 115.953 369.576ZM109.761 354.84L108.993 354.168H122.529L121.809 354.84C121.809 353.528 121.521 352.456 120.945 351.624C120.369 350.76 119.633 350.12 118.737 349.704C117.873 349.256 116.961 349.032 116.001 349.032C115.041 349.032 114.081 349.256 113.121 349.704C112.161 350.12 111.361 350.76 110.721 351.624C110.081 352.456 109.761 353.528 109.761 354.84ZM144.273 369V335.4H156.129C158.433 335.4 160.465 335.848 162.225 336.744C163.985 337.64 165.361 338.888 166.353 340.488C167.345 342.056 167.841 343.88 167.841 345.96C167.841 348.04 167.313 349.88 166.257 351.48C165.233 353.08 163.809 354.344 161.985 355.272C160.161 356.168 158.097 356.616 155.793 356.616H149.841V369H144.273ZM162.897 369L155.025 355.368L159.345 352.392L169.185 369H162.897ZM149.841 351.48H156.369C157.457 351.48 158.417 351.24 159.249 350.76C160.113 350.28 160.801 349.624 161.313 348.792C161.857 347.96 162.129 347.016 162.129 345.96C162.129 344.36 161.553 343.048 160.401 342.024C159.249 341 157.761 340.488 155.937 340.488H149.841V351.48ZM184.532 369.576C182.196 369.576 180.116 369.048 178.292 367.992C176.5 366.904 175.076 365.416 174.02 363.528C172.996 361.64 172.484 359.464 172.484 357C172.484 354.536 173.012 352.36 174.068 350.472C175.124 348.584 176.564 347.112 178.388 346.056C180.244 344.968 182.356 344.424 184.724 344.424C186.868 344.424 188.804 344.984 190.532 346.104C192.26 347.192 193.62 348.776 194.612 350.856C195.636 352.936 196.148 355.416 196.148 358.296H177.284L178.004 357.624C178.004 359.096 178.324 360.376 178.964 361.464C179.604 362.52 180.452 363.336 181.508 363.912C182.564 364.488 183.732 364.776 185.012 364.776C186.484 364.776 187.7 364.456 188.66 363.816C189.62 363.144 190.372 362.28 190.916 361.224L195.668 363.24C194.996 364.52 194.132 365.64 193.076 366.6C192.052 367.56 190.82 368.296 189.38 368.808C187.972 369.32 186.356 369.576 184.532 369.576ZM178.34 354.84L177.572 354.168H191.108L190.388 354.84C190.388 353.528 190.1 352.456 189.524 351.624C188.948 350.76 188.212 350.12 187.316 349.704C186.452 349.256 185.54 349.032 184.58 349.032C183.62 349.032 182.66 349.256 181.7 349.704C180.74 350.12 179.94 350.76 179.3 351.624C178.66 352.456 178.34 353.528 178.34 354.84ZM209.817 369.576C207.289 369.576 205.353 368.952 204.009 367.704C202.697 366.424 202.041 364.6 202.041 362.232V337.512H207.369V361.224C207.369 362.344 207.625 363.192 208.137 363.768C208.681 364.344 209.465 364.632 210.489 364.632C210.809 364.632 211.161 364.568 211.545 364.44C211.929 364.312 212.361 364.072 212.841 363.72L214.809 367.8C213.977 368.376 213.145 368.808 212.313 369.096C211.481 369.416 210.649 369.576 209.817 369.576ZM198.057 349.608V345H213.849V349.608H198.057ZM217.909 369V365.016L230.677 349.512H217.909V345H237.445V348.936L224.677 364.536H237.541V369H217.909ZM242.648 369V345H247.976V369H242.648ZM245.336 340.44C244.472 340.44 243.72 340.136 243.08 339.528C242.472 338.888 242.168 338.136 242.168 337.272C242.168 336.408 242.472 335.672 243.08 335.064C243.72 334.456 244.472 334.152 245.336 334.152C246.2 334.152 246.936 334.456 247.544 335.064C248.184 335.672 248.504 336.408 248.504 337.272C248.504 338.136 248.184 338.888 247.544 339.528C246.936 340.136 246.2 340.44 245.336 340.44ZM265.016 369.576C262.68 369.576 260.6 369.048 258.776 367.992C256.984 366.904 255.56 365.416 254.504 363.528C253.48 361.64 252.968 359.464 252.968 357C252.968 354.536 253.496 352.36 254.552 350.472C255.608 348.584 257.048 347.112 258.872 346.056C260.728 344.968 262.84 344.424 265.208 344.424C267.352 344.424 269.288 344.984 271.016 346.104C272.744 347.192 274.104 348.776 275.096 350.856C276.12 352.936 276.632 355.416 276.632 358.296H257.768L258.488 357.624C258.488 359.096 258.808 360.376 259.448 361.464C260.088 362.52 260.936 363.336 261.992 363.912C263.048 364.488 264.216 364.776 265.496 364.776C266.968 364.776 268.184 364.456 269.144 363.816C270.104 363.144 270.856 362.28 271.4 361.224L276.152 363.24C275.48 364.52 274.616 365.64 273.56 366.6C272.536 367.56 271.304 368.296 269.864 368.808C268.456 369.32 266.84 369.576 265.016 369.576ZM258.824 354.84L258.056 354.168H271.592L270.872 354.84C270.872 353.528 270.584 352.456 270.008 351.624C269.432 350.76 268.696 350.12 267.8 349.704C266.936 349.256 266.024 349.032 265.064 349.032C264.104 349.032 263.144 349.256 262.184 349.704C261.224 350.12 260.424 350.76 259.784 351.624C259.144 352.456 258.824 353.528 258.824 354.84ZM280.749 369V345H285.789L286.125 349.416V369H280.749ZM297.021 369V356.712H302.397V369H297.021ZM297.021 356.712C297.021 354.792 296.797 353.32 296.349 352.296C295.933 351.24 295.325 350.504 294.525 350.088C293.757 349.672 292.845 349.464 291.789 349.464C289.997 349.432 288.605 350.024 287.613 351.24C286.621 352.456 286.125 354.2 286.125 356.472H284.109C284.109 353.944 284.477 351.784 285.213 349.992C285.949 348.168 287.005 346.792 288.381 345.864C289.757 344.904 291.389 344.424 293.277 344.424C295.197 344.424 296.829 344.808 298.173 345.576C299.549 346.344 300.589 347.544 301.293 349.176C302.029 350.776 302.397 352.872 302.397 355.464V356.712H297.021ZM320.429 369V335.4H325.997V363.912H341.213V369H320.429ZM345.21 369V345H350.538V369H345.21ZM347.898 340.44C347.034 340.44 346.282 340.136 345.642 339.528C345.034 338.888 344.73 338.136 344.73 337.272C344.73 336.408 345.034 335.672 345.642 335.064C346.282 334.456 347.034 334.152 347.898 334.152C348.762 334.152 349.498 334.456 350.106 335.064C350.746 335.672 351.066 336.408 351.066 337.272C351.066 338.136 350.746 338.888 350.106 339.528C349.498 340.136 348.762 340.44 347.898 340.44ZM356.874 369V335.4H362.25V364.536L361.962 369H356.874ZM369.834 369.576C367.818 369.576 366.074 369.064 364.602 368.04C363.162 366.984 362.058 365.512 361.29 363.624C360.522 361.736 360.138 359.528 360.138 357C360.138 354.44 360.522 352.232 361.29 350.376C362.058 348.488 363.162 347.032 364.602 346.008C366.074 344.952 367.818 344.424 369.834 344.424C372.01 344.424 373.898 344.952 375.498 346.008C377.13 347.032 378.394 348.488 379.29 350.376C380.218 352.232 380.682 354.44 380.682 357C380.682 359.528 380.218 361.736 379.29 363.624C378.394 365.512 377.13 366.984 375.498 368.04C373.898 369.064 372.01 369.576 369.834 369.576ZM368.49 364.68C369.77 364.68 370.906 364.36 371.898 363.72C372.89 363.048 373.674 362.136 374.25 360.984C374.858 359.832 375.162 358.504 375.162 357C375.162 355.496 374.874 354.168 374.298 353.016C373.754 351.864 372.986 350.968 371.994 350.328C371.002 349.688 369.85 349.368 368.538 349.368C367.322 349.368 366.234 349.688 365.274 350.328C364.314 350.968 363.562 351.864 363.018 353.016C362.506 354.168 362.25 355.496 362.25 357C362.25 358.504 362.506 359.832 363.018 360.984C363.562 362.136 364.298 363.048 365.226 363.72C366.186 364.36 367.274 364.68 368.49 364.68ZM388.833 356.232C388.833 353.64 389.329 351.512 390.321 349.848C391.313 348.184 392.593 346.952 394.161 346.152C395.761 345.32 397.425 344.904 399.153 344.904V350.04C397.681 350.04 396.289 350.248 394.977 350.664C393.697 351.048 392.657 351.688 391.857 352.584C391.057 353.48 390.657 354.664 390.657 356.136L388.833 356.232ZM385.281 369V345H390.657V369H385.281ZM413.422 369.576C411.086 369.576 409.006 369.048 407.182 367.992C405.39 366.904 403.966 365.416 402.91 363.528C401.886 361.64 401.374 359.464 401.374 357C401.374 354.536 401.902 352.36 402.958 350.472C404.014 348.584 405.454 347.112 407.278 346.056C409.134 344.968 411.246 344.424 413.614 344.424C415.758 344.424 417.694 344.984 419.422 346.104C421.15 347.192 422.51 348.776 423.502 350.856C424.526 352.936 425.038 355.416 425.038 358.296H406.174L406.894 357.624C406.894 359.096 407.214 360.376 407.854 361.464C408.494 362.52 409.342 363.336 410.398 363.912C411.454 364.488 412.622 364.776 413.902 364.776C415.374 364.776 416.59 364.456 417.55 363.816C418.51 363.144 419.262 362.28 419.806 361.224L424.558 363.24C423.886 364.52 423.022 365.64 421.966 366.6C420.942 367.56 419.71 368.296 418.27 368.808C416.862 369.32 415.246 369.576 413.422 369.576ZM407.23 354.84L406.462 354.168H419.998L419.278 354.84C419.278 353.528 418.99 352.456 418.414 351.624C417.838 350.76 417.102 350.12 416.206 349.704C415.342 349.256 414.43 349.032 413.47 349.032C412.51 349.032 411.55 349.256 410.59 349.704C409.63 350.12 408.83 350.76 408.19 351.624C407.55 352.456 407.23 353.528 407.23 354.84Z" fill="black"/>
</svg>
