<svg width="327" height="265" viewBox="0 0 327 265" fill="none" xmlns="http://www.w3.org/2000/svg">
<mask id="path-1-inside-1_134_948" fill="white">
<path d="M268.026 40.9898C261.138 41.9331 255.895 46.5642 255.084 51.933C253.949 51.8688 252.778 51.9097 251.59 52.0725C247.623 52.6157 244.203 54.3838 241.859 56.8096C238.811 54.2703 234.277 52.9721 229.452 53.6327C221.407 54.7345 215.603 60.8669 216.488 67.33C217.373 73.7931 224.613 78.1391 232.658 77.0373C233.231 76.9587 233.794 76.8537 234.343 76.7257C236.943 81.0415 242.813 83.5939 249.192 82.7203C253.376 82.1473 256.951 80.2112 259.297 77.5781C262.264 79.4835 266.228 80.3872 270.412 79.8142C273.46 79.3967 276.184 78.2555 278.347 76.6496C279.433 76.7014 280.551 76.6593 281.684 76.504C288.294 75.5987 293.39 71.2968 294.507 66.206C294.645 66.1902 294.784 66.1739 294.923 66.1549C302.967 65.0531 308.771 58.9207 307.886 52.4577C307.001 45.9947 299.762 41.6478 291.717 42.7494C288.158 43.2369 285.037 44.711 282.74 46.7614C280.075 42.5801 274.295 40.1312 268.026 40.9898Z"/>
</mask>
<path d="M268.026 40.9898C261.138 41.9331 255.895 46.5642 255.084 51.933C253.949 51.8688 252.778 51.9097 251.59 52.0725C247.623 52.6157 244.203 54.3838 241.859 56.8096C238.811 54.2703 234.277 52.9721 229.452 53.6327C221.407 54.7345 215.603 60.8669 216.488 67.33C217.373 73.7931 224.613 78.1391 232.658 77.0373C233.231 76.9587 233.794 76.8537 234.343 76.7257C236.943 81.0415 242.813 83.5939 249.192 82.7203C253.376 82.1473 256.951 80.2112 259.297 77.5781C262.264 79.4835 266.228 80.3872 270.412 79.8142C273.46 79.3967 276.184 78.2555 278.347 76.6496C279.433 76.7014 280.551 76.6593 281.684 76.504C288.294 75.5987 293.39 71.2968 294.507 66.206C294.645 66.1902 294.784 66.1739 294.923 66.1549C302.967 65.0531 308.771 58.9207 307.886 52.4577C307.001 45.9947 299.762 41.6478 291.717 42.7494C288.158 43.2369 285.037 44.711 282.74 46.7614C280.075 42.5801 274.295 40.1312 268.026 40.9898Z" fill="white"/>
<path d="M268.026 40.9898L267.619 38.0175V38.0175L268.026 40.9898ZM255.084 51.933L258.05 52.381L257.642 55.0826L254.914 54.9283L255.084 51.933ZM251.59 52.0725L251.183 49.1002L251.183 49.1002L251.59 52.0725ZM241.859 56.8096L244.017 58.8942L242.08 60.8983L239.939 59.1146L241.859 56.8096ZM229.452 53.6327L229.045 50.6604L229.045 50.6604L229.452 53.6327ZM216.488 67.33L213.516 67.7371L213.516 67.7371L216.488 67.33ZM232.658 77.0373L233.065 80.0095L233.065 80.0095L232.658 77.0373ZM234.343 76.7257L233.662 73.804L235.787 73.3086L236.913 75.1775L234.343 76.7257ZM249.192 82.7203L249.599 85.6926L249.599 85.6926L249.192 82.7203ZM259.297 77.5781L257.057 75.5824L258.761 73.6692L260.918 75.0536L259.297 77.5781ZM270.412 79.8142L270.819 82.7864L270.819 82.7864L270.412 79.8142ZM278.347 76.6496L276.558 74.241L277.419 73.602L278.49 73.653L278.347 76.6496ZM281.684 76.504L282.091 79.4763L282.091 79.4763L281.684 76.504ZM294.507 66.206L291.577 65.5632L292.036 63.4685L294.167 63.2253L294.507 66.206ZM294.923 66.1549L295.33 69.1272L295.33 69.1272L294.923 66.1549ZM307.886 52.4577L310.859 52.0507L310.859 52.0508L307.886 52.4577ZM291.717 42.7494L291.31 39.7772L291.31 39.7771L291.717 42.7494ZM282.74 46.7614L284.738 48.9994L282.107 51.3486L280.211 48.374L282.74 46.7614ZM268.026 40.9898L268.433 43.962C262.5 44.7746 258.612 48.6589 258.05 52.381L255.084 51.933L252.117 51.485C253.177 44.4695 259.777 39.0915 267.619 38.0175L268.026 40.9898ZM255.084 51.933L254.914 54.9283C253.967 54.8747 252.99 54.9088 251.997 55.0447L251.59 52.0725L251.183 49.1002C252.566 48.9107 253.93 48.863 255.253 48.9378L255.084 51.933ZM251.59 52.0725L251.997 55.0447C248.655 55.5025 245.864 56.9821 244.017 58.8942L241.859 56.8096L239.702 54.7251C242.542 51.7856 246.592 49.7289 251.183 49.1002L251.59 52.0725ZM241.859 56.8096L239.939 59.1146C237.607 57.1721 233.942 56.046 229.859 56.605L229.452 53.6327L229.045 50.6604C234.612 49.8982 240.015 51.3685 243.78 54.5046L241.859 56.8096ZM229.452 53.6327L229.859 56.605C222.815 57.5697 218.878 62.676 219.46 66.923L216.488 67.33L213.516 67.7371C212.327 59.0578 220 51.8993 229.045 50.6604L229.452 53.6327ZM216.488 67.33L219.46 66.923C220.042 71.1699 225.207 75.0297 232.251 74.065L232.658 77.0373L233.065 80.0095C224.019 81.2484 214.704 76.4164 213.516 67.7371L216.488 67.33ZM232.658 77.0373L232.251 74.065C232.729 73.9994 233.2 73.9116 233.662 73.804L234.343 76.7257L235.024 79.6473C234.387 79.7958 233.733 79.9179 233.065 80.0095L232.658 77.0373ZM234.343 76.7257L236.913 75.1775C238.764 78.2505 243.322 80.4962 248.785 79.7481L249.192 82.7203L249.599 85.6926C242.305 86.6916 235.122 83.8325 231.773 78.2738L234.343 76.7257ZM249.192 82.7203L248.785 79.7481C252.313 79.2649 255.22 77.6444 257.057 75.5824L259.297 77.5781L261.537 79.5737C258.682 82.7779 254.439 85.0297 249.599 85.6926L249.192 82.7203ZM259.297 77.5781L260.918 75.0536C263.242 76.5458 266.477 77.3251 270.005 76.8419L270.412 79.8142L270.819 82.7864C265.979 83.4493 261.287 82.4212 257.676 80.1025L259.297 77.5781ZM270.412 79.8142L270.005 76.8419C272.566 76.4911 274.813 75.5371 276.558 74.241L278.347 76.6496L280.135 79.0582C277.556 80.9739 274.353 82.3024 270.819 82.7864L270.412 79.8142ZM278.347 76.6496L278.49 73.653C279.401 73.6965 280.334 73.6609 281.277 73.5318L281.684 76.504L282.091 79.4763C280.767 79.6576 279.465 79.7063 278.204 79.6462L278.347 76.6496ZM281.684 76.504L281.277 73.5318C286.953 72.7544 290.791 69.1441 291.577 65.5632L294.507 66.206L297.437 66.8488C295.989 73.4495 289.636 78.4429 282.091 79.4763L281.684 76.504ZM294.507 66.206L294.167 63.2253C294.302 63.2099 294.413 63.1968 294.516 63.1827L294.923 66.1549L295.33 69.1272C295.156 69.1511 294.988 69.1705 294.847 69.1866L294.507 66.206ZM294.923 66.1549L294.516 63.1827C301.559 62.218 305.496 57.1118 304.914 52.8647L307.886 52.4577L310.859 52.0508C312.047 60.7296 304.376 67.8882 295.33 69.1272L294.923 66.1549ZM307.886 52.4577L304.914 52.8648C304.332 48.6175 299.168 44.7571 292.124 45.7217L291.717 42.7494L291.31 39.7771C300.356 38.5384 309.67 43.3719 310.859 52.0507L307.886 52.4577ZM291.717 42.7494L292.124 45.7217C289.128 46.132 286.569 47.365 284.738 48.9994L282.74 46.7614L280.742 44.5234C283.505 42.057 287.187 40.3419 291.31 39.7772L291.717 42.7494ZM282.74 46.7614L280.211 48.374C278.303 45.3806 273.797 43.2274 268.433 43.962L268.026 40.9898L267.619 38.0175C274.793 37.035 281.848 39.7796 285.27 45.1489L282.74 46.7614Z" fill="black" mask="url(#path-1-inside-1_134_948)"/>
<rect x="53.4551" y="33.8619" width="205.053" height="150.274" rx="6" transform="rotate(-1.92053 53.4551 33.8619)" fill="white" stroke="black" stroke-width="3" stroke-linejoin="round"/>
<line x1="54.2979" y1="58.9975" x2="259.236" y2="52.1255" stroke="black" stroke-width="3"/>
<circle cx="212.204" cy="41.1301" r="4.44158" transform="rotate(-1.92053 212.204 41.1301)" fill="white" stroke="black" stroke-width="3"/>
<circle cx="229.221" cy="40.5598" r="4.44158" transform="rotate(-1.92053 229.221 40.5598)" fill="white" stroke="black" stroke-width="3"/>
<circle cx="246.237" cy="39.989" r="4.44158" transform="rotate(-1.92053 246.237 39.989)" fill="white" stroke="black" stroke-width="3"/>
<line x1="77.0519" y1="111.323" x2="103.907" y2="110.422" stroke="black" stroke-width="2" stroke-linecap="round"/>
<line x1="78.9864" y1="169.03" x2="105.842" y2="168.13" stroke="black" stroke-width="2" stroke-linecap="round"/>
<line x1="122.182" y1="109.809" x2="149.037" y2="108.909" stroke="black" stroke-width="2" stroke-linecap="round"/>
<line x1="124.117" y1="167.517" x2="150.972" y2="166.617" stroke="black" stroke-width="2" stroke-linecap="round"/>
<line x1="167.313" y1="108.296" x2="194.168" y2="107.396" stroke="black" stroke-width="2" stroke-linecap="round"/>
<line x1="169.248" y1="166.004" x2="196.103" y2="165.104" stroke="black" stroke-width="2" stroke-linecap="round"/>
<line x1="212.443" y1="106.783" x2="239.299" y2="105.882" stroke="black" stroke-width="2" stroke-linecap="round"/>
<line x1="214.379" y1="164.491" x2="241.234" y2="163.59" stroke="black" stroke-width="2" stroke-linecap="round"/>
<line x1="76.7671" y1="117.758" x2="104.622" y2="116.824" stroke="black" stroke-linecap="round"/>
<line x1="78.7022" y1="175.466" x2="106.557" y2="174.532" stroke="black" stroke-linecap="round"/>
<line x1="121.898" y1="116.245" x2="149.752" y2="115.311" stroke="black" stroke-linecap="round"/>
<line x1="123.833" y1="173.953" x2="151.687" y2="173.019" stroke="black" stroke-linecap="round"/>
<line x1="167.028" y1="114.732" x2="194.883" y2="113.798" stroke="black" stroke-linecap="round"/>
<line x1="168.963" y1="172.439" x2="196.818" y2="171.505" stroke="black" stroke-linecap="round"/>
<line x1="212.159" y1="113.217" x2="240.014" y2="112.283" stroke="black" stroke-linecap="round"/>
<line x1="214.095" y1="170.926" x2="241.949" y2="169.992" stroke="black" stroke-linecap="round"/>
<g clip-path="url(#clip0_134_948)">
<path d="M70.1919 43.2406C69.8265 42.2136 68.8202 41.4937 67.6615 41.5326C66.2314 41.5805 65.1105 42.766 65.1579 44.1804C65.168 44.4815 65.2302 44.7687 65.3357 45.0337C64.2904 45.1394 63.4917 46.0299 63.527 47.0839C63.5639 48.184 64.4955 49.0455 65.6078 49.0082L70.7868 48.8346C70.8308 48.8331 70.8744 48.8302 70.9176 48.826C70.9696 48.8271 71.0219 48.8267 71.0745 48.8249C72.6635 48.7717 73.9089 47.4545 73.8562 45.8829C73.8035 44.3113 72.4727 43.0805 70.8836 43.1338C70.6441 43.1418 70.4125 43.1786 70.1919 43.2406Z" stroke="black" stroke-width="2" stroke-linejoin="round"/>
</g>
<path d="M68.7733 48.9022L68.6492 45.203M68.6492 45.203L66.4892 47.053M68.6492 45.203L70.9283 46.9042" stroke="black" stroke-linecap="round" stroke-linejoin="round"/>
<path d="M67.293 48.9517L69.8824 48.8649" stroke="black"/>
<rect x="71.1168" y="74.0266" width="36.4277" height="29.8564" rx="4.5" transform="rotate(-1.92053 71.1168 74.0266)" fill="#FFA8BA" stroke="black" stroke-width="3" stroke-linejoin="round"/>
<path d="M71.0135 91.2268L85.529 82.9323C89.1355 88.359 98.1611 98.1243 98.1611 98.1243C98.1611 98.1243 105.624 93.9701 108.449 92.4371" stroke="black" stroke-width="3" stroke-linejoin="round"/>
<circle cx="99.2527" cy="81.6502" r="2.25888" transform="rotate(-1.92053 99.2527 81.6502)" fill="black"/>
<rect x="73.0519" y="131.735" width="36.4277" height="29.8564" rx="4.5" transform="rotate(-1.92053 73.0519 131.735)" fill="#FAAE2B" stroke="black" stroke-width="3" stroke-linejoin="round"/>
<path d="M72.9495 148.935L87.4651 140.64C91.0715 146.067 100.097 155.832 100.097 155.832C100.097 155.832 107.56 151.678 110.385 150.145" stroke="black" stroke-width="3" stroke-linecap="round" stroke-linejoin="round"/>
<circle cx="101.188" cy="139.358" r="2.25888" transform="rotate(-1.92053 101.188 139.358)" fill="black"/>
<rect x="116.429" y="72.5066" width="36.4277" height="29.8564" rx="4.5" transform="rotate(-1.92053 116.429 72.5066)" fill="#FAAE2B" stroke="black" stroke-width="3" stroke-linejoin="round"/>
<path d="M116.327 89.7068L130.843 81.4123C134.449 86.839 143.475 96.6042 143.475 96.6042C143.475 96.6042 150.938 92.4501 153.763 90.9171" stroke="black" stroke-width="3" stroke-linejoin="round"/>
<circle cx="144.565" cy="80.1302" r="2.25888" transform="rotate(-1.92053 144.565 80.1302)" fill="black"/>
<rect x="118.364" y="130.215" width="36.4277" height="29.8564" rx="4.5" transform="rotate(-1.92053 118.364 130.215)" fill="white" stroke="black" stroke-width="3" stroke-linejoin="round"/>
<path d="M118.262 147.415L132.778 139.121C136.384 144.547 145.41 154.313 145.41 154.313C145.41 154.313 152.873 150.159 155.698 148.626" stroke="black" stroke-width="3" stroke-linecap="round" stroke-linejoin="round"/>
<circle cx="146.5" cy="137.84" r="2.25888" transform="rotate(-1.92053 146.5 137.84)" fill="black"/>
<rect x="161.742" y="70.9875" width="36.4277" height="29.8564" rx="4.5" transform="rotate(-1.92053 161.742 70.9875)" fill="#00473E" stroke="black" stroke-width="3" stroke-linejoin="round"/>
<path d="M161.64 88.1872L176.156 79.8927C179.762 85.3194 188.788 95.0847 188.788 95.0847C188.788 95.0847 196.251 90.9306 199.076 89.3976" stroke="black" stroke-width="3" stroke-linejoin="round"/>
<circle cx="189.878" cy="78.6102" r="2.25888" transform="rotate(-1.92053 189.878 78.6102)" fill="black"/>
<rect x="163.676" y="128.696" width="36.4277" height="29.8564" rx="4.5" transform="rotate(-1.92053 163.676 128.696)" fill="#00473E" stroke="black" stroke-width="3" stroke-linejoin="round"/>
<path d="M163.575 145.896L178.09 137.601C181.696 143.028 190.722 152.793 190.722 152.793C190.722 152.793 198.185 148.639 201.01 147.106" stroke="black" stroke-width="3" stroke-linejoin="round"/>
<circle cx="191.813" cy="136.319" r="2.25888" transform="rotate(-1.92053 191.813 136.319)" fill="black"/>
<rect x="207.055" y="69.468" width="36.4277" height="29.8564" rx="4.5" transform="rotate(-1.92053 207.055 69.468)" fill="#FFA8BA" stroke="black" stroke-width="3" stroke-linejoin="round"/>
<path d="M206.953 86.6677L221.469 78.3732C225.075 83.7999 234.101 93.5652 234.101 93.5652C234.101 93.5652 241.564 89.411 244.389 87.878" stroke="black" stroke-width="3" stroke-linejoin="round"/>
<circle cx="235.192" cy="77.0921" r="2.25888" transform="rotate(-1.92053 235.192 77.0921)" fill="black"/>
<rect x="208.99" y="127.176" width="36.4277" height="29.8564" rx="4.5" transform="rotate(-1.92053 208.99 127.176)" fill="#FAAE2B" stroke="black" stroke-width="3" stroke-linejoin="round"/>
<path d="M208.887 144.376L223.402 136.081C227.009 141.508 236.034 151.273 236.034 151.273C236.034 151.273 243.497 147.119 246.322 145.586" stroke="black" stroke-width="3" stroke-linejoin="round"/>
<circle cx="237.126" cy="134.8" r="2.25888" transform="rotate(-1.92053 237.126 134.8)" fill="black"/>
<mask id="path-51-inside-2_134_948" fill="white">
<path d="M134.534 123.711C154.718 120.947 173.244 130.427 179.867 145.669C183.017 144.562 186.354 143.746 189.837 143.269C201.463 141.677 212.539 144.149 221.108 149.443C227.657 139.464 239.396 131.96 253.535 130.023C277.114 126.794 298.434 140.273 301.154 160.129C303.873 179.986 286.962 198.701 263.383 201.93C261.703 202.16 260.034 202.302 258.383 202.366C254.534 217.249 240.033 229.547 221.336 232.108C209.075 233.787 197.427 230.946 188.685 225.043C181.853 233.079 171.398 238.946 159.138 240.625C150.212 241.848 141.61 240.674 134.218 237.669C131.194 238.7 128 239.463 124.674 239.919C105.3 242.572 87.4532 233.945 80.1948 219.768C79.792 219.833 79.3874 219.894 78.9807 219.95C55.401 223.179 34.0809 209.7 31.3615 189.844C28.6422 169.987 45.5531 151.272 69.1327 148.043C79.5683 146.614 89.5602 148.46 97.694 152.68C101.837 138.146 116.161 126.228 134.534 123.711Z"/>
</mask>
<path d="M134.534 123.711C154.718 120.947 173.244 130.427 179.867 145.669C183.017 144.562 186.354 143.746 189.837 143.269C201.463 141.677 212.539 144.149 221.108 149.443C227.657 139.464 239.396 131.96 253.535 130.023C277.114 126.794 298.434 140.273 301.154 160.129C303.873 179.986 286.962 198.701 263.383 201.93C261.703 202.16 260.034 202.302 258.383 202.366C254.534 217.249 240.033 229.547 221.336 232.108C209.075 233.787 197.427 230.946 188.685 225.043C181.853 233.079 171.398 238.946 159.138 240.625C150.212 241.848 141.61 240.674 134.218 237.669C131.194 238.7 128 239.463 124.674 239.919C105.3 242.572 87.4532 233.945 80.1948 219.768C79.792 219.833 79.3874 219.894 78.9807 219.95C55.401 223.179 34.0809 209.7 31.3615 189.844C28.6422 169.987 45.5531 151.272 69.1327 148.043C79.5683 146.614 89.5602 148.46 97.694 152.68C101.837 138.146 116.161 126.228 134.534 123.711Z" fill="white"/>
<path d="M134.534 123.711L134.127 120.739L134.127 120.739L134.534 123.711ZM179.867 145.669L177.115 146.864L178.228 149.424L180.861 148.499L179.867 145.669ZM189.837 143.269L189.43 140.297V140.297L189.837 143.269ZM221.108 149.443L219.531 151.995L222.014 153.529L223.616 151.089L221.108 149.443ZM253.535 130.023L253.128 127.051V127.051L253.535 130.023ZM301.154 160.129L304.126 159.722L304.126 159.722L301.154 160.129ZM263.383 201.93L263.79 204.902V204.902L263.383 201.93ZM258.383 202.366L258.266 199.369L256.037 199.455L255.478 201.615L258.383 202.366ZM221.336 232.108L221.743 235.08L221.743 235.08L221.336 232.108ZM188.685 225.043L190.364 222.557L188.139 221.054L186.4 223.1L188.685 225.043ZM159.138 240.625L159.545 243.597L159.545 243.597L159.138 240.625ZM134.218 237.669L135.348 234.89L134.31 234.468L133.25 234.829L134.218 237.669ZM124.674 239.919L125.081 242.891L125.081 242.891L124.674 239.919ZM80.1948 219.768L82.8651 218.401L81.8711 216.459L79.7178 216.806L80.1948 219.768ZM78.9807 219.95L79.3877 222.922L79.3878 222.922L78.9807 219.95ZM31.3615 189.844L28.3892 190.251L28.3892 190.251L31.3615 189.844ZM69.1327 148.043L68.7256 145.071L68.7256 145.071L69.1327 148.043ZM97.694 152.68L96.3123 155.343L99.5722 157.035L100.579 153.503L97.694 152.68ZM134.534 123.711L134.941 126.684C154.076 124.063 171.134 133.099 177.115 146.864L179.867 145.669L182.618 144.473C175.354 127.755 155.36 117.831 134.127 120.739L134.534 123.711ZM179.867 145.669L180.861 148.499C183.821 147.459 186.961 146.691 190.244 146.242L189.837 143.269L189.43 140.297C185.746 140.801 182.213 141.665 178.873 142.838L179.867 145.669ZM189.837 143.269L190.244 146.242C201.211 144.739 211.581 147.083 219.531 151.995L221.108 149.443L222.685 146.89C213.497 141.214 201.715 138.614 189.43 140.297L189.837 143.269ZM221.108 149.443L223.616 151.089C229.652 141.891 240.593 134.824 253.942 132.995L253.535 130.023L253.128 127.051C238.199 129.095 225.662 137.036 218.6 147.797L221.108 149.443ZM253.535 130.023L253.942 132.995C276.379 129.923 295.75 142.78 298.182 160.536L301.154 160.129L304.126 159.722C301.119 137.766 277.85 123.665 253.128 127.051L253.535 130.023ZM301.154 160.129L298.182 160.536C300.613 178.293 285.413 195.885 262.976 198.958L263.383 201.93L263.79 204.902C288.512 201.516 307.133 181.678 304.126 159.722L301.154 160.129ZM263.383 201.93L262.976 198.958C261.396 199.174 259.824 199.308 258.266 199.369L258.383 202.366L258.499 205.364C260.244 205.296 262.01 205.146 263.79 204.902L263.383 201.93ZM258.383 202.366L255.478 201.615C251.984 215.126 238.63 226.711 220.929 229.136L221.336 232.108L221.743 235.08C241.435 232.383 257.084 219.372 261.287 203.118L258.383 202.366ZM221.336 232.108L220.929 229.136C209.361 230.72 198.463 228.026 190.364 222.557L188.685 225.043L187.006 227.529C196.391 233.867 208.789 236.854 221.743 235.08L221.336 232.108ZM188.685 225.043L186.4 223.1C180.07 230.544 170.298 236.069 158.731 237.653L159.138 240.625L159.545 243.597C172.498 241.823 183.636 235.613 190.971 226.986L188.685 225.043ZM159.138 240.625L158.731 237.653C150.315 238.806 142.244 237.694 135.348 234.89L134.218 237.669L133.088 240.448C140.976 243.655 150.108 244.89 159.545 243.597L159.138 240.625ZM134.218 237.669L133.25 234.829C130.408 235.798 127.403 236.517 124.267 236.947L124.674 239.919L125.081 242.891C128.598 242.41 131.979 241.602 135.186 240.508L134.218 237.669ZM124.674 239.919L124.267 236.947C105.913 239.46 89.4388 231.24 82.8651 218.401L80.1948 219.768L77.5244 221.135C85.4676 236.649 104.686 245.684 125.081 242.891L124.674 239.919ZM80.1948 219.768L79.7178 216.806C79.3323 216.868 78.9517 216.926 78.5736 216.978L78.9807 219.95L79.3878 222.922C79.8232 222.863 80.2518 222.797 80.6717 222.73L80.1948 219.768ZM78.9807 219.95L78.5736 216.978C56.1363 220.051 36.7656 207.194 34.3337 189.437L31.3615 189.844L28.3892 190.251C31.3963 212.207 54.6657 226.308 79.3877 222.922L78.9807 219.95ZM31.3615 189.844L34.3337 189.437C31.902 171.68 47.1025 154.088 69.5397 151.015L69.1327 148.043L68.7256 145.071C44.0036 148.457 25.3824 168.295 28.3892 190.251L31.3615 189.844ZM69.1327 148.043L69.5397 151.015C79.381 149.668 88.7457 151.417 96.3123 155.343L97.694 152.68L99.0757 150.017C90.3746 145.503 79.7556 143.56 68.7256 145.071L69.1327 148.043ZM97.694 152.68L100.579 153.503C104.345 140.293 117.55 129.065 134.941 126.684L134.534 123.711L134.127 120.739C114.771 123.39 99.3299 135.999 94.8089 151.858L97.694 152.68Z" fill="black" mask="url(#path-51-inside-2_134_948)"/>
<path d="M33.001 102.99L45.274 104.929L36.7772 113.995L34.8384 126.268L25.7725 117.771L13.4995 115.833L21.9962 106.767L23.9351 94.4937L33.001 102.99Z" fill="black"/>
<path d="M279.632 220.704H281.057L280.498 220.94L281.925 222.508C281.956 222.542 281.984 222.578 282.014 222.613L280.916 222.341V223.758L280.684 223.205L279.113 224.637C279.078 224.669 279.04 224.698 279.004 224.729L279.276 223.634H277.854L278.41 223.399L276.983 221.83C276.952 221.796 276.924 221.759 276.894 221.724L277.992 221.997V220.579L278.225 221.133L279.795 219.701C279.83 219.669 279.867 219.639 279.903 219.608L279.632 220.704Z" fill="black" stroke="black" stroke-width="3" stroke-miterlimit="10"/>
<defs>
<clipPath id="clip0_134_948">
<rect width="11.8442" height="11.8442" fill="white" transform="translate(62.5312 39.4825) rotate(-1.92053)"/>
</clipPath>
</defs>
</svg>
