<svg width="316" height="279" viewBox="0 0 316 279" fill="none" xmlns="http://www.w3.org/2000/svg">
<path d="M100.93 71.7381C105.639 89.3625 123.071 100.613 141.083 97.7042C131.964 113.518 136.288 133.794 151.104 144.459C133.48 149.169 122.229 166.6 125.138 184.612C109.324 175.494 89.0474 179.817 78.3832 194.633C73.673 177.009 56.2422 165.757 38.2301 168.667C47.3508 152.849 43.0238 132.568 28.1996 121.905C45.8156 117.158 57.0845 99.7723 54.1752 81.7591C69.9891 90.8782 90.2653 86.5543 100.93 71.7381Z" fill="#FAAE2B" stroke="black" stroke-width="3" stroke-miterlimit="10"/>
<path d="M43.248 143.872L38.0479 125.451L42.271 125.458L45.2827 138.253L45.4423 138.253L48.7897 125.469L52.4112 125.474L55.7051 138.307L55.877 138.307L58.9176 125.485L63.1529 125.492L57.8813 143.896L54.1125 143.89L50.6577 131.848L50.5104 131.848L47.0291 143.878L43.248 143.872Z" fill="white"/>
<path d="M73.4104 144.168C71.79 144.165 70.3338 143.792 69.0419 143.049C67.7499 142.305 66.7287 141.228 65.978 139.819C65.2273 138.409 64.8536 136.707 64.8568 134.713C64.86 132.703 65.2392 130.994 65.9944 129.587C66.7496 128.179 67.7744 127.105 69.0687 126.366C70.363 125.627 71.8203 125.258 73.4408 125.261C75.0613 125.264 76.5134 125.637 77.7971 126.38C79.089 127.124 80.1103 128.2 80.861 129.61C81.6116 131.02 81.9854 132.73 81.9821 134.741C81.9789 136.751 81.5997 138.46 80.8445 139.867C80.0893 141.266 79.0645 142.336 77.7703 143.075C76.4842 143.806 75.0309 144.171 73.4104 144.168ZM68.7729 134.719C68.7698 136.664 69.1889 138.151 70.0302 139.182C70.8797 140.214 72.0083 140.73 73.4159 140.733C74.8154 140.735 75.9375 140.222 76.7821 139.193C77.6349 138.165 78.0629 136.679 78.066 134.734C78.0692 132.782 77.646 131.29 76.7965 130.259C75.9552 129.219 74.8348 128.699 73.4353 128.696C72.0276 128.694 70.8974 129.211 70.0445 130.248C69.1999 131.276 68.776 132.767 68.7729 134.719Z" fill="white"/>
<path d="M93.077 144.2C91.4565 144.197 90.0003 143.824 88.7084 143.08C87.4165 142.337 86.3952 141.26 85.6445 139.85C84.8939 138.44 84.5201 136.738 84.5233 134.745C84.5266 132.734 84.9058 131.026 85.661 129.618C86.4162 128.211 87.4409 127.137 88.7352 126.398C90.0295 125.658 91.4869 125.29 93.1074 125.293C94.7278 125.295 96.1799 125.668 97.4637 126.412C98.7556 127.155 99.7769 128.232 100.528 129.642C101.278 131.052 101.652 132.762 101.649 134.772C101.645 136.782 101.266 138.491 100.511 139.899C99.7559 141.298 98.7311 142.367 97.4368 143.107C96.1507 143.838 94.6975 144.202 93.077 144.2ZM88.4395 134.751C88.4363 136.695 88.8554 138.183 89.6967 139.214C90.5462 140.245 91.6748 140.762 93.0825 140.764C94.482 140.766 95.6041 140.253 96.4487 139.225C97.3015 138.196 97.7295 136.71 97.7326 134.766C97.7357 132.813 97.3125 131.322 96.463 130.29C95.6217 129.251 94.5013 128.73 93.1018 128.728C91.6942 128.726 90.5639 129.243 89.7111 130.28C88.8665 131.308 88.4426 132.798 88.4395 134.751Z" fill="white"/>
<path d="M107.649 143.976L103.5 143.969L109.852 125.567L114.824 125.575L121.104 143.997L116.967 143.991L115.611 139.787L109.006 139.776L107.649 143.976ZM109.993 136.738L114.634 136.746L112.398 129.772L112.251 129.772L109.993 136.738Z" fill="white"/>
<path d="M123.289 144.001L123.319 125.588L127.174 125.594L127.161 133.194L135.006 133.207L135.018 125.607L138.885 125.613L138.856 144.026L134.989 144.02L135.001 136.408L127.156 136.395L127.144 144.007L123.289 144.001Z" fill="white"/>
<rect x="214.699" y="92.3064" width="95.4313" height="32.2408" rx="4.5" transform="rotate(7.0438 214.699 92.3064)" fill="#FAAE2B" stroke="black" stroke-width="3"/>
<circle cx="227.284" cy="107.044" r="3.6456" transform="rotate(7.0438 227.284 107.044)" fill="white" stroke="black" stroke-width="3"/>
<circle cx="220.441" cy="117.83" r="1.8228" transform="rotate(7.0438 220.441 117.83)" fill="black"/>
<circle cx="226.471" cy="118.575" r="1.8228" transform="rotate(7.0438 226.471 118.575)" fill="black"/>
<circle cx="232.502" cy="119.32" r="1.8228" transform="rotate(7.0438 232.502 119.32)" fill="black"/>
<line x1="264.23" y1="107.649" x2="297.434" y2="111.752" stroke="black" stroke-width="3" stroke-linecap="round"/>
<line x1="263.336" y1="114.885" x2="296.54" y2="118.988" stroke="black" stroke-width="3" stroke-linecap="round"/>
<line x1="262.442" y1="122.121" x2="295.646" y2="126.224" stroke="black" stroke-width="3" stroke-linecap="round"/>
<rect x="209.781" y="132.106" width="95.4313" height="32.2408" rx="4.5" transform="rotate(7.0438 209.781 132.106)" fill="#FFA8BA" stroke="black" stroke-width="3"/>
<circle cx="222.367" cy="146.843" r="3.6456" transform="rotate(7.0438 222.367 146.843)" fill="white" stroke="black" stroke-width="3"/>
<circle cx="215.524" cy="157.63" r="1.8228" transform="rotate(7.0438 215.524 157.63)" fill="black"/>
<circle cx="221.554" cy="158.375" r="1.8228" transform="rotate(7.0438 221.554 158.375)" fill="black"/>
<circle cx="227.584" cy="159.12" r="1.8228" transform="rotate(7.0438 227.584 159.12)" fill="black"/>
<line x1="259.312" y1="147.448" x2="292.516" y2="151.55" stroke="black" stroke-width="3" stroke-linecap="round"/>
<line x1="258.418" y1="154.684" x2="291.622" y2="158.787" stroke="black" stroke-width="3" stroke-linecap="round"/>
<line x1="257.524" y1="161.92" x2="290.728" y2="166.023" stroke="black" stroke-width="3" stroke-linecap="round"/>
<rect x="204.864" y="171.905" width="95.4313" height="32.2408" rx="4.5" transform="rotate(7.0438 204.864 171.905)" fill="white" stroke="black" stroke-width="3"/>
<circle cx="217.449" cy="186.641" r="3.6456" transform="rotate(7.0438 217.449 186.641)" fill="white" stroke="black" stroke-width="3"/>
<circle cx="210.606" cy="197.428" r="1.8228" transform="rotate(7.0438 210.606 197.428)" fill="black"/>
<circle cx="216.636" cy="198.173" r="1.8228" transform="rotate(7.0438 216.636 198.173)" fill="black"/>
<circle cx="222.667" cy="198.918" r="1.8228" transform="rotate(7.0438 222.667 198.918)" fill="black"/>
<line x1="254.395" y1="187.246" x2="287.598" y2="191.349" stroke="black" stroke-width="3" stroke-linecap="round"/>
<line x1="253.501" y1="194.482" x2="286.704" y2="198.585" stroke="black" stroke-width="3" stroke-linecap="round"/>
<line x1="252.607" y1="201.718" x2="285.81" y2="205.821" stroke="black" stroke-width="3" stroke-linecap="round"/>
<mask id="path-27-inside-1_134_2519" fill="white">
<path d="M275.22 254.212C275.085 255.308 274.086 256.087 272.99 255.951L215.452 248.842C214.356 248.706 213.577 247.708 213.712 246.612L215.01 236.108C215.146 235.012 216.144 234.233 217.24 234.369L274.778 241.478C275.875 241.614 276.653 242.612 276.518 243.708L275.22 254.212Z"/>
</mask>
<path d="M275.22 254.212C275.085 255.308 274.086 256.087 272.99 255.951L215.452 248.842C214.356 248.706 213.577 247.708 213.712 246.612L215.01 236.108C215.146 235.012 216.144 234.233 217.24 234.369L274.778 241.478C275.875 241.614 276.653 242.612 276.518 243.708L275.22 254.212Z" fill="white"/>
<path d="M272.99 255.951L273.358 252.974L215.82 245.864L215.452 248.842L215.084 251.819L272.622 258.929L272.99 255.951ZM213.712 246.612L216.69 246.979L217.987 236.476L215.01 236.108L212.033 235.741L210.735 246.244L213.712 246.612ZM217.24 234.369L216.872 237.346L274.41 244.456L274.778 241.478L275.146 238.501L217.608 231.391L217.24 234.369ZM276.518 243.708L273.541 243.341L272.243 253.844L275.22 254.212L278.198 254.579L279.495 244.076L276.518 243.708ZM274.778 241.478L274.41 244.456C273.862 244.388 273.473 243.889 273.541 243.341L276.518 243.708L279.495 244.076C279.834 241.336 277.887 238.839 275.146 238.501L274.778 241.478ZM215.01 236.108L217.987 236.476C217.92 237.024 217.421 237.414 216.872 237.346L217.24 234.369L217.608 231.391C214.868 231.053 212.371 233 212.033 235.741L215.01 236.108ZM215.452 248.842L215.82 245.864C216.368 245.932 216.757 246.431 216.69 246.979L213.712 246.612L210.735 246.244C210.396 248.984 212.344 251.48 215.084 251.819L215.452 248.842ZM272.99 255.951L272.622 258.929C275.363 259.267 277.859 257.32 278.198 254.579L275.22 254.212L272.243 253.844C272.311 253.296 272.81 252.906 273.358 252.974L272.99 255.951Z" fill="black" mask="url(#path-27-inside-1_134_2519)"/>
<path d="M213.836 242.49L74.4706 225.27" stroke="black" stroke-width="4" stroke-linecap="round"/>
<path d="M245.131 238.155L247.377 219.977" stroke="black" stroke-width="4" stroke-linecap="round"/>
<path d="M74.5957 224.26L76.0931 212.141" stroke="black" stroke-width="4" stroke-linecap="round"/>
<mask id="path-32-inside-2_134_2519" fill="white">
<path d="M298.759 62.7911C298.894 61.6949 298.115 60.6964 297.019 60.561L241.76 53.7331C240.663 53.5976 239.665 54.3765 239.529 55.4727L238.298 65.4389C238.163 66.5352 238.941 67.5336 240.038 67.6691L295.297 74.497C296.393 74.6324 297.392 73.8536 297.527 72.7573L298.759 62.7911Z"/>
</mask>
<path d="M298.759 62.7911C298.894 61.6949 298.115 60.6964 297.019 60.561L241.76 53.7331C240.663 53.5976 239.665 54.3765 239.529 55.4727L238.298 65.4389C238.163 66.5352 238.941 67.5336 240.038 67.6691L295.297 74.497C296.393 74.6324 297.392 73.8536 297.527 72.7573L298.759 62.7911Z" fill="white"/>
<path d="M297.019 60.561L296.651 63.5383L241.392 56.7104L241.76 53.7331L242.127 50.7557L297.387 57.5836L297.019 60.561ZM239.529 55.4727L242.507 55.8406L241.275 65.8068L238.298 65.4389L235.321 65.071L236.552 55.1048L239.529 55.4727ZM240.038 67.6691L240.406 64.6917L295.665 71.5196L295.297 74.497L294.929 77.4743L239.67 70.6464L240.038 67.6691ZM297.527 72.7573L294.55 72.3894L295.781 62.4232L298.759 62.7911L301.736 63.159L300.505 73.1252L297.527 72.7573ZM295.297 74.497L295.665 71.5196C295.117 71.4519 294.618 71.8413 294.55 72.3894L297.527 72.7573L300.505 73.1252C300.166 75.8658 297.67 77.813 294.929 77.4743L295.297 74.497ZM238.298 65.4389L241.275 65.8068C241.343 65.2587 240.954 64.7595 240.406 64.6917L240.038 67.6691L239.67 70.6464C236.929 70.3078 234.982 67.8116 235.321 65.071L238.298 65.4389ZM241.76 53.7331L241.392 56.7104C241.94 56.7782 242.439 56.3887 242.507 55.8406L239.529 55.4727L236.552 55.1048C236.891 52.3643 239.387 50.4171 242.127 50.7557L241.76 53.7331ZM297.019 60.561L297.387 57.5836C300.128 57.9222 302.075 60.4184 301.736 63.159L298.759 62.7911L295.781 62.4232C295.714 62.9714 296.103 63.4706 296.651 63.5383L297.019 60.561Z" fill="black" mask="url(#path-32-inside-2_134_2519)"/>
<path d="M239.452 60.0737L104.126 43.3528" stroke="black" stroke-width="4" stroke-linecap="round"/>
<path d="M266.73 71.647L264.609 88.8152" stroke="black" stroke-width="4" stroke-linecap="round"/>
<path d="M104.125 43.3525L102.753 54.4614" stroke="black" stroke-width="4" stroke-linecap="round"/>
<path d="M273.561 5.86749L273.561 5.86846C274.476 9.6993 276.186 13.0526 278.559 15.4798L279.748 16.6959L278.291 17.575C275.384 19.3277 272.885 22.1437 271.037 25.6219L270.852 25.9694L270.761 25.5867C269.847 21.7557 268.136 18.4017 265.763 15.9744L264.573 14.7571L266.031 13.8791C268.939 12.1265 271.438 9.31033 273.285 5.83222L273.47 5.48363L273.561 5.86749Z" fill="black" stroke="black" stroke-width="3"/>
<path d="M56.0321 259.113C55.8129 259.357 55.6121 259.627 55.4371 259.928L54.4736 261.586L56.3153 262.122C57.1417 262.362 57.9091 262.762 58.5961 263.284C58.3343 263.28 58.0682 263.292 57.7994 263.324L55.6934 263.567L56.625 265.473C57.0128 266.266 57.2664 267.134 57.3856 268.025C57.1426 267.806 56.8735 267.604 56.5726 267.428L54.914 266.463L54.3777 268.306C54.1375 269.132 53.7381 269.898 53.2185 270.585C53.2223 270.325 53.2097 270.061 53.179 269.794L52.9357 267.683L51.028 268.619C50.231 269.01 49.36 269.266 48.4685 269.387C48.6876 269.144 48.8892 268.875 49.0641 268.574L50.0288 266.915L48.1872 266.379C47.3608 266.139 46.5933 265.739 45.9063 265.217C46.1679 265.221 46.4334 265.209 46.7018 265.178L48.8091 264.934L47.8775 263.028C47.4896 262.236 47.2348 261.367 47.1156 260.477C47.3588 260.696 47.6284 260.898 47.9295 261.074L49.5884 262.038L50.1244 260.196C50.3648 259.37 50.7632 258.602 51.2833 257.915C51.2794 258.175 51.2927 258.44 51.3235 258.707L51.5655 260.818L53.4744 259.882C54.271 259.491 55.1412 259.234 56.0321 259.113Z" fill="black" stroke="black" stroke-width="3" stroke-miterlimit="10"/>
</svg>
