<svg width="330" height="300" viewBox="0 0 330 300" fill="none" xmlns="http://www.w3.org/2000/svg">
<rect x="42.1465" y="87.7065" width="240.62" height="176.339" rx="6" transform="rotate(-15 42.1465 87.7065)" fill="white" stroke="black" stroke-width="3" stroke-linejoin="round"/>
<line x1="49.852" y1="116.464" x2="282.273" y2="54.1868" stroke="black" stroke-width="3"/>
<circle cx="225.528" cy="53.8578" r="5.21198" transform="rotate(-15 225.528 53.8578)" fill="white" stroke="black" stroke-width="3"/>
<circle cx="244.827" cy="48.6869" r="5.21198" transform="rotate(-15 244.827 48.6869)" fill="white" stroke="black" stroke-width="3"/>
<circle cx="264.125" cy="43.516" r="5.21198" transform="rotate(-15 264.125 43.516)" fill="white" stroke="black" stroke-width="3"/>
<path d="M315.303 232.02L322.093 237.409L313.821 240L308.432 246.79L305.84 238.518L299.05 233.129L307.322 230.537L312.711 223.747L315.303 232.02Z" fill="black"/>
<g clip-path="url(#clip0_134_858)">
<path d="M61.9178 98.9129L63.3051 96.5152M66.7419 90.5586L56.4263 97.3695L61.9048 98.9367L66.0013 102.898L66.7419 90.5586Z" stroke="black" stroke-width="2" stroke-linecap="round" stroke-linejoin="round"/>
</g>
<g clip-path="url(#clip1_134_858)">
<path d="M115.209 122.088L121.757 123.031L126.956 118.94M119.918 128.92L126.294 127.211C127.234 126.959 127.704 126.833 128.014 126.554C128.287 126.309 128.475 125.983 128.551 125.624C128.638 125.216 128.512 124.746 128.26 123.807L127.001 119.108C126.749 118.168 126.623 117.698 126.344 117.388C126.099 117.115 125.773 116.927 125.414 116.851C125.006 116.764 124.536 116.89 123.597 117.142L117.22 118.851C116.28 119.103 115.81 119.229 115.5 119.508C115.227 119.753 115.039 120.079 114.963 120.438C114.876 120.846 115.002 121.315 115.254 122.255L116.513 126.954C116.765 127.894 116.891 128.364 117.17 128.674C117.415 128.946 117.741 129.134 118.1 129.211C118.508 129.297 118.978 129.171 119.918 128.92Z" stroke="black" stroke-width="2" stroke-linejoin="round"/>
</g>
<g clip-path="url(#clip2_134_858)">
<path d="M122.403 148.937L128.951 149.881L134.15 145.79M127.112 155.769L133.489 154.061C134.429 153.809 134.899 153.683 135.209 153.404C135.481 153.158 135.669 152.833 135.745 152.474C135.832 152.066 135.706 151.596 135.454 150.656L134.195 145.957C133.944 145.018 133.818 144.548 133.539 144.238C133.293 143.965 132.967 143.777 132.609 143.701C132.201 143.614 131.731 143.74 130.791 143.992L124.414 145.7C123.474 145.952 123.004 146.078 122.694 146.357C122.422 146.603 122.234 146.928 122.157 147.287C122.071 147.695 122.197 148.165 122.448 149.105L123.707 153.804C123.959 154.744 124.085 155.213 124.364 155.523C124.61 155.796 124.935 155.984 125.294 156.06C125.702 156.147 126.172 156.021 127.112 155.769Z" stroke="black" stroke-width="2" stroke-linejoin="round"/>
</g>
<g clip-path="url(#clip3_134_858)">
<path d="M129.598 175.787L136.146 176.731L141.345 172.64M134.306 182.619L140.683 180.911C141.623 180.659 142.093 180.533 142.403 180.254C142.676 180.008 142.863 179.683 142.94 179.324C143.026 178.916 142.901 178.446 142.649 177.506L141.39 172.807C141.138 171.868 141.012 171.398 140.733 171.088C140.487 170.815 140.162 170.627 139.803 170.551C139.395 170.464 138.925 170.59 137.985 170.842L131.608 172.551C130.669 172.802 130.199 172.928 129.889 173.207C129.616 173.453 129.428 173.778 129.352 174.137C129.265 174.545 129.391 175.015 129.643 175.955L130.902 180.654C131.154 181.594 131.28 182.064 131.559 182.373C131.804 182.646 132.13 182.834 132.489 182.91C132.897 182.997 133.366 182.871 134.306 182.619Z" stroke="black" stroke-width="2" stroke-linejoin="round"/>
</g>
<g clip-path="url(#clip4_134_858)">
<path d="M136.793 202.638L143.341 203.581L148.54 199.49M141.501 209.47L147.878 207.761C148.818 207.509 149.288 207.383 149.598 207.104C149.87 206.859 150.058 206.533 150.135 206.175C150.221 205.767 150.095 205.297 149.844 204.357L148.584 199.658C148.333 198.718 148.207 198.248 147.928 197.938C147.682 197.666 147.357 197.478 146.998 197.401C146.59 197.315 146.12 197.441 145.18 197.692L138.803 199.401C137.863 199.653 137.393 199.779 137.083 200.058C136.811 200.303 136.623 200.629 136.547 200.988C136.46 201.396 136.586 201.866 136.838 202.806L138.097 207.504C138.348 208.444 138.474 208.914 138.753 209.224C138.999 209.497 139.324 209.685 139.683 209.761C140.091 209.848 140.561 209.722 141.501 209.47Z" stroke="black" stroke-width="2" stroke-linejoin="round"/>
</g>
<line x1="99.4118" y1="112.967" x2="131.494" y2="232.7" stroke="black" stroke-width="2" stroke-linecap="round"/>
<line x1="71.1636" y1="128.875" x2="91.3011" y2="123.48" stroke="black"/>
<line x1="135.217" y1="116.209" x2="155.355" y2="110.814" stroke="black"/>
<line x1="142.412" y1="143.059" x2="162.549" y2="137.663" stroke="black"/>
<line x1="149.606" y1="169.909" x2="169.743" y2="164.513" stroke="black"/>
<line x1="156.801" y1="196.759" x2="176.938" y2="191.363" stroke="black"/>
<line x1="135.337" y1="123.372" x2="262.036" y2="89.4227" stroke="black"/>
<line x1="142.532" y1="150.221" x2="269.231" y2="116.272" stroke="black"/>
<line x1="149.727" y1="177.071" x2="276.426" y2="143.122" stroke="black"/>
<line x1="156.921" y1="203.921" x2="283.619" y2="169.973" stroke="black"/>
<line x1="74.7607" y1="142.3" x2="94.8983" y2="136.904" stroke="black"/>
<line x1="118.512" y1="137.771" x2="275.417" y2="95.7289" stroke="black"/>
<line x1="125.707" y1="164.622" x2="282.612" y2="122.579" stroke="black"/>
<line x1="132.901" y1="191.472" x2="289.806" y2="149.429" stroke="black"/>
<line x1="140.096" y1="218.322" x2="297.001" y2="176.279" stroke="black"/>
<line x1="78.3579" y1="155.726" x2="98.4954" y2="150.33" stroke="black"/>
<line x1="81.9551" y1="169.151" x2="102.093" y2="163.755" stroke="black"/>
<line x1="85.5522" y1="182.576" x2="105.69" y2="177.18" stroke="black"/>
<line x1="89.1494" y1="196.001" x2="109.287" y2="190.605" stroke="black"/>
<line x1="92.7466" y1="209.426" x2="112.884" y2="204.03" stroke="black"/>
<line x1="96.3442" y1="222.851" x2="116.482" y2="217.455" stroke="black"/>
<line x1="99.9414" y1="236.275" x2="120.079" y2="230.88" stroke="black"/>
<path d="M33.1746 168.525C33.1089 168.673 32.8239 169.26 32.7063 169.517C32.8041 169.21 33.4114 167.989 33.1746 168.525ZM25.1315 196.365C25.1937 196.142 25.2563 195.919 25.3195 195.696C25.1066 196.319 24.8422 197.161 24.6502 197.736C24.6187 197.83 24.669 197.576 24.5968 197.8C24.5249 198.023 24.5758 197.992 24.4763 198.323C24.3621 198.696 23.8184 200.381 23.6494 200.965C23.0117 203.134 22.4173 205.402 21.8612 207.598C22.4039 205.309 21.7971 207.591 21.6546 208.252C21.6271 208.395 21.6845 208.396 21.1509 210.693C20.8244 212.156 21.0039 210.76 20.5505 213.25C21.0095 211.36 20.6107 213.237 20.3415 214.718C20.2907 214.972 19.9187 217.03 19.7856 217.961C19.7384 218.276 19.7053 218.761 19.648 219.176C19.6087 219.462 19.558 219.675 19.5035 220.097C19.248 222.089 19.0559 224.037 18.9253 226.043C18.9011 224.859 18.8259 226.965 18.8232 227.055C18.7692 227.533 18.8822 225.367 18.8165 226.223C18.7489 227.427 18.7101 228.591 18.7006 229.79C18.7225 228.803 18.7709 231.097 18.7555 231.508C18.7864 231.318 18.9201 236.914 19.1293 237.736C19.1655 237.907 19.0286 236.764 19.3977 239.423C19.4414 239.709 19.3982 239.605 19.4252 239.754C19.4415 239.844 19.6138 240.37 19.6784 240.945C19.7148 241.16 19.3486 239.826 20.0206 242.775C19.7861 241.605 21.1176 246.788 21.5408 247.668C21.4823 247.482 21.4253 247.296 21.3696 247.109C21.6722 248.023 21.7732 248.172 21.8522 248.377C22.1748 249.199 22.6501 250.307 23.0242 251.028C23.4666 251.874 23.5119 251.856 24.0521 252.825C23.9278 252.593 23.8064 252.359 23.6879 252.123C24.06 252.794 24.4554 253.45 24.8747 254.09C23.8567 252.636 25.0743 254.419 25.1651 254.526C25.2954 254.71 25.087 254.46 25.3054 254.768C25.3291 254.799 25.3153 254.74 25.6582 255.211C26.3872 256.187 26.2545 256.047 26.5723 256.45C26.6035 256.485 26.5123 256.348 27.086 257.023C28.9519 259.1 27.0505 257.034 26.9909 256.945C26.9056 256.832 27.4095 257.669 25.9554 255.761C26.4345 256.407 26.4579 256.494 26.5127 256.566C26.5585 256.637 27.4645 257.689 27.5222 257.739C27.9922 258.235 27.6109 257.769 27.7045 257.864C27.7711 257.947 28.9096 259.186 29.2723 259.385C29.8091 259.999 28.8561 259.136 27.9313 258.16C27.7788 258.032 28.796 259.111 28.8601 259.161C30.2499 260.483 29.5277 259.693 29.8622 259.945C30.037 260.073 30.5867 260.616 30.0932 260.1C31.3988 261.218 30.5879 260.564 30.6665 260.642C30.7887 260.757 31.271 261.127 31.3304 261.176C31.4159 261.248 31.0971 261.023 31.4387 261.304C31.4959 261.351 32.0808 261.761 31.3684 261.179C32.3335 261.942 32.2823 261.844 32.5704 262.137C33.3145 262.518 33.0209 262.543 33.2881 262.735C34.0084 263.241 33.8521 263.016 33.8923 263.039C34.1679 263.208 36.2589 264.486 36.801 264.729C36.5467 264.684 35.1365 263.816 34.788 263.607C33.6692 262.983 36.3172 264.554 35.4798 264.157C35.8188 264.324 36.1627 264.488 36.5116 264.648C37.1138 265.023 36.1917 264.594 37.9255 265.434C38.2263 265.532 36.7036 264.834 37.0226 264.95C37.2031 265.023 38.2103 265.511 38.2389 265.507C38.2621 265.506 37.3458 265.077 37.4996 265.127C37.8295 265.275 41.14 266.781 38.6026 265.682C39.3261 266.012 39.6221 266.239 40.2575 266.469C40.6742 266.608 38.4313 265.601 41.859 266.957C41.9127 267.029 40.4684 266.443 40.4373 266.427C40.3832 266.41 40.6047 266.606 40.6484 266.628C40.7881 266.741 44.3781 267.941 45.1311 268.166C44.8166 268.036 47.9645 268.913 48.2592 268.937C48.3482 268.952 48.0275 268.843 48.1222 268.861C48.7052 268.977 50.3165 269.371 51.1017 269.506C51.9748 269.66 51.8731 269.608 51.9213 269.617C52.3027 269.681 52.0079 269.653 52.221 269.688C52.2252 269.689 52.2296 269.69 52.2342 269.691C52.5915 269.75 55.0258 270.133 55.1468 270.145C55.1826 270.149 54.7915 270.054 55.3217 270.128C55.4131 270.141 55.3511 270.175 56.916 270.389C58.8034 270.645 55.6161 270.146 56.4051 270.219C57.603 270.458 57.5765 270.391 57.9063 270.444C58.0208 270.463 58.8671 270.637 59.7905 270.763C59.1269 270.678 58.4616 270.592 57.7948 270.504C58.4484 270.608 59.7167 270.776 60.2508 270.86C60.5115 270.901 60.2906 270.914 60.8581 270.99C60.9782 271.006 61.4712 270.971 59.9772 270.811C59.8633 270.758 60.5683 270.88 60.8975 270.914C60.9473 270.919 61.1513 270.885 61.5642 270.98C61.6664 271.002 60.5359 271.036 63.3916 271.281C63.4839 271.289 63.168 271.225 63.2582 271.232C63.3201 271.238 64.045 271.34 64.1254 271.347C64.2078 271.354 63.8606 271.285 63.9588 271.293C64.4623 271.333 65.106 271.512 64.0759 271.373C64.4192 271.43 64.7621 271.485 65.1046 271.54C64.7456 271.421 65.6476 271.588 66.1222 271.644C69.162 271.997 67.1338 271.704 67.6595 271.742C68.5138 271.803 67.8514 271.852 69.1143 271.961C69.2298 271.97 67.7211 271.747 70.678 272.111C70.2417 272.064 69.8046 272.017 69.3667 271.969C69.6117 272.069 70.9449 272.142 71.0459 272.152C72.2079 272.268 71.4096 272.209 73.1488 272.357C73.3044 272.37 73.6404 272.422 73.9723 272.447C75.3506 272.553 72.1556 272.238 72.0809 272.198C72.0318 272.182 75.4655 272.54 75.5752 272.553C76.0697 272.633 74.0276 272.412 74.4132 272.488C74.5542 272.522 79.422 272.958 80.3994 273.048C81.5226 273.161 82.017 273.296 82.0332 273.19C82.3411 273.321 82.6336 273.272 82.7781 273.284C84.5312 273.432 84.5333 273.432 86.0251 273.53C86.354 273.551 86.6286 273.603 86.745 273.605C86.8134 273.607 86.6865 273.563 87.0225 273.576C87.4948 273.597 90.2802 273.81 90.4814 273.839C90.6869 273.87 89.3086 273.775 89.5536 273.821C90.5558 273.887 91.4978 273.934 92.5205 273.994C92.9415 274.018 92.724 274.028 92.9057 274.038C92.9842 274.044 94.4324 274.099 94.3707 274.087C94.2323 274.068 89.752 273.828 90.9341 273.856C91.1579 273.862 91.9565 273.958 91.8334 273.889C95.8416 274.129 99.7994 274.306 103.814 274.423C101.517 274.41 98.9479 274.28 96.5291 274.177C96.1895 274.163 95.0934 274.105 95.2241 274.143C97.268 274.249 99.7962 274.332 101.772 274.412C101.835 274.415 101.602 274.435 101.839 274.447C102.282 274.47 103.713 274.464 103.951 274.481C103.992 274.485 103.179 274.5 103.426 274.53C104.058 274.607 104.222 274.478 104.763 274.492C105.187 274.506 108.045 274.623 108.74 274.589C109.49 274.556 106.657 274.533 106.863 274.5C108.779 274.498 110.75 274.556 112.559 274.556C112.59 274.556 112.314 274.528 112.717 274.525C113.416 274.519 113.605 274.558 113.952 274.564C114.329 274.571 115.645 274.561 115.819 274.573C115.841 274.575 115.576 274.616 115.535 274.617C114.964 274.636 114.758 274.586 114.706 274.585C114.51 274.584 114.317 274.604 114.137 274.603C113.842 274.601 113.673 274.583 113.288 274.581C113.024 274.58 113.279 274.615 113.024 274.613C112.931 274.612 111.918 274.531 111.822 274.61C111.766 274.656 120.154 274.641 120.964 274.579C120.256 274.584 119.542 274.586 118.824 274.587C120.285 274.591 122.002 274.488 122.141 274.58C127.529 274.463 132.921 274.229 138.291 273.861C139.251 273.8 138.703 273.903 140.302 273.765C139.888 273.777 139.471 273.789 139.072 273.798C139.888 273.758 143.45 273.496 144.05 273.425C144.125 273.416 144.229 273.353 145.115 273.266C145.896 273.189 146.027 273.218 146.46 273.184C146.822 273.155 147.222 273.104 147.328 273.096C147.409 273.09 147.444 273.112 147.638 273.096C148.251 273.047 147.75 273.027 148.362 273.046C148.215 273.065 148.069 273.083 147.921 273.101C148.655 273.038 149.666 272.966 148.583 273.1C148.399 273.122 148.555 273.082 148.417 273.096C142.891 273.649 147.348 273.268 149.234 273.024C149.759 273.008 152.481 272.672 152.596 272.661C152.727 272.656 152.253 272.743 152.881 272.691C153.01 272.688 156.704 272.184 155.378 272.407C155.091 272.457 153.338 272.67 152.907 272.723C153.906 272.682 156.273 272.256 156.518 272.222C157.568 272.089 154.508 272.566 156.874 272.249C158.749 271.989 156.983 272.189 157.7 272.064C158.109 271.996 160.178 271.738 160.124 271.67C160.841 271.548 160.426 271.653 160.515 271.642C160.605 271.631 161.984 271.384 162.459 271.316C162.515 271.308 162.346 271.376 162.404 271.369C162.532 271.354 163.826 271.118 163.909 271.098C163.944 271.089 163.605 271.117 163.741 271.084C163.909 271.046 165.208 270.81 165.266 270.788C165.373 270.755 163.773 271.064 164.03 270.977C164.788 270.849 165.953 270.597 166.447 270.464C166.339 270.496 165.59 270.647 165.357 270.688C165.453 270.617 167.011 270.302 166.49 270.451C166.814 270.361 166.588 270.395 166.767 270.336C166.819 270.32 167.256 270.227 167.362 270.194C167.363 270.192 166.893 270.27 166.984 270.24C167.131 270.192 168.602 269.872 168.686 269.855C169.005 269.797 167.892 270.07 167.786 270.114C167.781 270.12 168.759 269.946 168.766 269.947C168.84 269.976 167.756 270.188 167.883 270.199C168.159 270.146 168.427 270.094 168.688 270.042C167.683 270.32 165.697 270.702 165.212 270.837C166.793 270.523 168.409 270.16 168.422 270.258C168.435 270.299 167.769 270.472 167.794 270.477C167.911 270.492 168.816 270.245 168.842 270.24C168.869 270.236 168.882 270.235 168.882 270.237C168.882 270.237 168.882 270.237 168.882 270.237C168.902 270.259 167.59 270.569 167.507 270.594C167.397 270.637 168.022 270.578 168.022 270.594C168.006 270.602 167.032 270.829 167.363 270.788C167.718 270.743 168.544 270.56 168.568 270.556C168.746 270.537 167.262 270.88 167.232 270.894C167.192 270.908 168.017 270.763 168.036 270.768C168.066 270.771 167.436 270.929 167.227 271.002C167.062 271.059 167.558 270.971 167.476 270.991C167.416 271.009 166.059 271.288 165.974 271.306C165.871 271.332 166.209 271.292 166.161 271.308C166.096 271.33 165.631 271.413 165.693 271.41C165.761 271.407 167.497 271.143 167.48 271.168C167.474 271.212 165.656 271.493 167.358 271.303C167.359 271.304 167.792 271.2 167.803 271.198C168.07 271.17 166.721 271.511 168.376 271.141C165.359 271.842 167.988 271.29 167.561 271.451C167.402 271.514 166.243 271.763 166.227 271.768C166.352 271.777 166.725 271.675 166.853 271.666C166.931 271.66 165.868 271.91 166.113 271.884C166.25 271.87 167.36 271.638 167.396 271.631C167.831 271.561 167.308 271.696 167.406 271.691C167.451 271.693 168.168 271.539 168.178 271.538C168.21 271.536 167.278 271.779 167.109 271.828C166.97 271.868 167.503 271.775 167.405 271.8C166.832 271.953 165.478 272.146 166.772 271.993C166.852 271.983 167.316 271.884 167.328 271.883C167.619 271.852 166.771 272.032 166.613 272.088C166.354 272.184 167.602 271.905 166.565 272.147C167.349 272.015 167.788 271.923 168.703 271.71C166.166 272.287 165.301 272.561 168.114 271.971C167.178 272.172 167.336 272.198 167.062 272.257C166.909 272.291 165.554 272.498 166.197 272.51C166.282 272.511 167.074 272.328 166.832 272.413C164.886 272.793 166.805 272.443 166.799 272.447C166.752 272.56 162.13 273.345 161.315 273.467C160.406 273.626 159.535 273.822 159.358 273.849C158.705 273.947 159.243 273.834 159.095 273.844C158.963 273.854 157.025 274.196 156.953 274.201C156.591 274.237 156.952 274.148 156.914 274.152C156.479 274.192 153.906 274.561 153.204 274.634C153.233 274.656 154.652 274.48 153.772 274.631C152.739 274.806 152.656 274.703 152.63 274.702C147.822 275.279 143.073 275.714 138.267 276.049C138.324 276.107 141.464 275.829 141.535 275.828C141.956 275.848 136.662 276.236 135.998 276.245C136.477 276.228 136.997 276.207 137.49 276.186C136.626 276.312 134.794 276.339 133.556 276.436C133.158 276.467 133.925 276.451 133.908 276.453C133.464 276.505 132.74 276.523 133.278 276.459C132.185 276.551 132.36 276.505 131.53 276.544C131.487 276.545 131.844 276.555 131.19 276.598C130.888 276.619 129.223 276.694 129.009 276.726C128.914 276.74 129.762 276.808 129.862 276.713C131.662 276.675 130.435 276.646 131.131 276.616C131.235 276.61 131.003 276.675 132.728 276.562C132.41 276.671 130.401 276.702 130.048 276.727C129.336 276.783 132.282 276.693 132.796 276.591C132.55 276.675 133.007 276.59 133.669 276.557C134.39 276.519 134.077 276.558 134.465 276.536C135.522 276.474 135.082 276.45 135.948 276.442C135.09 276.356 137.446 276.33 138.134 276.317C137.02 276.401 135.902 276.479 134.801 276.551C134.865 276.555 134.929 276.558 134.993 276.562C134.701 276.578 134.408 276.594 134.113 276.61C134.16 276.6 134.207 276.591 134.254 276.581C132.731 276.713 132.367 276.677 132.245 276.683C130.679 276.758 128.817 276.841 127.231 276.899C126.988 276.907 127.164 276.949 125.388 276.972C124.836 276.978 125.356 276.926 124.729 276.95C123.946 277.07 123.956 276.992 123.722 276.999C123.046 277.017 122.629 277.05 122.566 277.052C121.713 277.077 120.51 277.097 119.589 277.115C119.572 277.116 120.05 277.138 119.454 277.138C119.247 277.139 117.345 277.04 115.72 277.089C116.146 277.095 116.572 277.101 116.995 277.106C116.508 277.103 112.965 277.143 113.831 277.175C114.366 277.196 115.657 277.109 115.797 277.186C114.618 277.185 108.132 277.178 107.648 277.139C107.578 277.136 108.006 277.117 107.91 277.112C107.837 277.109 106.355 277.09 106.156 277.076C106.039 277.068 106.696 277.064 106.643 277.054C106.601 277.048 104.727 276.998 104.63 277.027C105.079 277.025 106.374 277.062 105.696 277.076C105.61 277.077 105.16 277.047 105.054 277.049C104.072 277.067 107.002 277.12 107.444 277.125C105.608 277.137 102.814 277.023 100.677 276.976C99.8163 276.921 101.955 276.977 100.982 276.924C98.9795 276.81 100.446 276.942 100.382 276.944C99.8898 276.955 98.206 276.747 98.1995 276.855C97.473 276.809 97.7102 276.806 96.6789 276.776C96.8143 276.789 96.9496 276.803 97.0848 276.816C95.9214 276.832 93.5562 276.554 93.7293 276.55C94.2167 276.543 95.4604 276.653 95.5659 276.657C95.7201 276.661 96.1685 276.574 97.9047 276.745C98.6226 276.702 95.1428 276.576 96.7291 276.595C95.6652 276.563 91.292 276.283 90.6689 276.273C90.5938 276.272 90.938 276.368 89.8658 276.265C89.3564 276.216 90.587 276.29 90.3544 276.259C89.6393 276.194 79.8347 275.508 77.9746 275.307C77.8533 275.296 77.8999 275.277 77.7806 275.266C77.4079 275.233 76.0901 275.143 75.4402 275.068C76.7818 275.242 74.1684 274.99 73.497 274.914C72.4821 274.802 72.5461 274.767 72.1102 274.712C70.449 274.504 67.8092 274.297 66.5218 274.049C66.5833 274.148 64.2778 273.73 63.2128 273.589C62.3763 273.48 61.1716 273.378 62.2824 273.562C60.8587 273.37 59.3554 273.179 58.0073 272.991C57.7846 272.96 58.0948 272.978 57.7146 272.926C57.68 272.921 57.6288 272.94 57.3018 272.895C54.6274 272.525 55.9358 272.661 55.4384 272.571C55.1601 272.52 54.9542 272.484 54.8028 272.459C56.3579 272.692 58.1624 272.941 58.6477 273.008C58.2375 272.895 55.1867 272.517 54.2966 272.362C54.2657 272.356 54.3783 272.342 54.3469 272.337C54.3463 272.337 54.3456 272.336 54.3449 272.336C54.0122 272.285 51.8733 271.96 52.3071 272.066C52.4238 272.094 53.409 272.251 54.5718 272.425C54.2561 272.384 54.4857 272.455 54.43 272.448C53.8562 272.375 52.5803 272.153 51.8471 272.025C51.7113 272.002 51.594 271.981 51.502 271.965C51.3626 271.941 51.369 271.965 51.3461 271.961C50.794 271.862 51.0311 271.838 50.4576 271.803C49.7168 271.606 51.176 271.901 51.8517 271.997C52.0527 272.026 52.176 272.04 52.1312 272.021C52.1145 272.013 52.0167 271.994 51.8567 271.965C50.5153 271.78 45.8479 270.758 45.7851 270.757C45.7653 270.745 45.6814 270.714 45.5087 270.659C45.1179 270.54 43.4314 270.054 43.1507 269.969C43.1021 269.957 43.1027 270.021 43.043 270.003C42.9147 269.974 40.8496 269.223 40.089 268.95C40.4928 269.117 40.9025 269.279 41.3183 269.437C38.8207 268.51 39.2294 268.647 40.028 268.994C40.069 269.01 40.108 269.028 40.1472 269.043C40.7767 269.304 41.6149 269.613 41.6269 269.622C41.6222 269.692 37.4943 268.033 38.3199 268.294C38.4203 268.341 40.3111 269.14 39.3846 268.719C39.218 268.649 38.0169 268.145 37.9611 268.11C37.5453 267.908 40.1868 268.983 39.8892 268.801C39.2158 268.579 38.4292 268.225 37.6825 267.893C37.3384 267.74 37.2432 267.728 37.2009 267.709C36.5753 267.419 36.9387 267.557 36.7317 267.457C36.6163 267.408 35.3946 266.857 35.6645 266.888C31.8402 264.8 34.5076 266.434 36.9682 267.615C36.1626 267.276 34.7059 266.479 34.0703 266.107C33.8304 265.97 33.9543 266.081 33.5515 265.847C32.6781 265.419 29.0598 262.744 28.2457 261.894C28.7891 262.36 28.6535 262.196 28.2404 261.831C27.8307 261.463 28.1424 261.808 28.0595 261.739C27.9678 261.696 26.0942 259.819 25.8262 259.488C27.1861 260.912 26.8956 260.569 25.769 259.344C25.937 259.516 26.107 259.686 26.2792 259.855C25.5884 259.167 24.3243 257.543 23.9847 257.092C23.9293 257.022 24.0981 257.294 24.0671 257.255C23.746 256.874 22.8134 255.473 22.7697 255.408C22.7252 255.358 23.1048 255.968 22.9464 255.753C22.9132 255.709 22.5581 255.112 22.1944 254.535C22.0593 254.32 22.1156 254.465 22.081 254.411C21.797 253.961 21.9904 254.211 21.5032 253.37C21.1524 252.75 20.8604 252.301 20.4474 251.413C21.8607 254.312 20.611 251.905 20.0489 250.677C19.9608 250.479 19.9766 250.677 19.498 249.469C20.6684 251.975 19.2077 248.723 19.0007 248.049C18.9878 248.012 19.0127 247.988 18.8953 247.656C18.8856 247.628 18.8781 247.676 18.7692 247.366C17.7911 244.397 18.4329 246.29 18.2731 245.718C18.2 245.463 17.7777 244.036 17.6863 243.635C17.6643 243.544 17.6958 243.581 17.6117 243.229C17.4636 242.605 17.3216 242.044 17.2369 241.625C17.2282 241.575 17.2581 241.567 17.1046 240.79C17.062 240.572 17.0068 240.327 17.051 240.641C17.1864 241.665 17.6829 243.666 17.9721 244.809C18.2176 245.872 17.3485 242.547 17.3403 242.354C17.326 242.289 17.4869 242.949 17.3452 242.274C17.2222 241.688 16.9637 240.671 16.8427 239.808C16.8322 239.743 16.7814 239.047 16.79 239.078C16.7939 239.108 16.9693 240.159 16.9615 240.003C16.9592 239.985 16.8545 239.317 16.854 239.227C16.8518 239.117 16.9456 238.809 16.9296 238.665C16.8883 238.295 16.8896 238.539 16.8603 238.299C16.7882 237.772 16.6537 236.03 16.6069 235.971C16.6294 236.263 16.654 236.553 16.6808 236.843C16.5215 235.229 16.5713 235.917 16.5406 235.688C16.5113 235.441 16.5567 235.508 16.5213 234.957C16.5028 234.836 16.3837 232.528 16.3772 232.579C16.4496 233.836 16.3846 233.37 16.3846 233.429C16.3912 233.652 16.4342 233.941 16.451 234.242C16.5847 236.356 16.3974 234.229 16.4191 234.728C16.4261 234.901 16.4752 235.24 16.4797 235.313C16.4936 235.549 16.4619 235.555 16.4773 235.712C16.5139 236.077 16.5236 235.646 16.5285 235.675C16.5801 236.001 16.671 237.275 16.5438 236.489C16.5724 236.966 16.6388 237.015 16.6561 237.392C16.6949 238.148 16.5767 237.024 16.5414 236.722C16.4097 235.63 16.399 235.305 16.3063 233.727C16.275 233.159 16.2253 232.51 16.2173 232.248C16.2074 232.086 16.2915 230.534 16.1362 230.486C16.1503 229.876 16.2702 228.924 16.2849 228.316C16.2981 227.764 16.2367 227.937 16.2361 227.886C16.2348 227.807 16.2664 227.136 16.2703 226.907C16.2743 226.64 16.2454 226.772 16.2597 226.347C16.2993 225.286 16.3606 225.316 16.3706 225.207C16.5053 223.958 16.3848 224.504 16.3993 224.226C16.3945 223.985 16.805 220.329 16.9015 219.597C16.8723 219.905 16.845 220.21 16.8187 220.518C16.9212 219.976 16.9412 219.389 17.0066 219.387C16.9168 219.263 17.1454 218.139 17.1963 217.797C17.2156 217.662 17.1964 217.67 17.2215 217.501C17.3171 216.839 17.5816 215.357 17.6365 215.01C17.8667 213.475 17.1195 217.377 17.0848 217.701C17.167 217.065 17.7582 213.575 17.4269 215.167C17.3756 215.413 17.3473 215.855 17.3254 215.997C17.1783 216.957 17.2619 216.197 17.2455 216.271C17.2176 216.398 17.1558 217.034 17.1257 217.199C17.1161 217.254 17.1321 216.893 16.9926 217.802C17.0156 217.346 17.4724 214.803 17.5303 214.479C17.5519 214.36 17.3267 215.089 17.8165 212.938C17.8044 212.962 17.7924 212.985 17.7803 213.009C18.0144 211.796 18.2644 210.6 18.5301 209.41C18.517 209.543 18.3999 210.219 18.5822 209.375C18.6885 208.889 18.5705 209.24 18.5795 209.195C18.6175 208.741 20.6222 201.065 21.105 199.633C21.2507 199.134 21.6508 197.732 21.685 197.625C21.8778 196.983 22.6129 194.777 22.7617 194.329C22.8517 194.051 22.7341 194.305 22.8183 194.057C22.8968 193.828 22.8454 194.076 22.8695 194.008C23.0601 193.432 24.5164 189.162 24.9322 188.161C24.6876 188.776 23.6451 191.88 23.693 191.824C23.7 191.812 23.9843 191.071 24.029 190.912C24.1434 190.666 24.3821 189.762 24.5709 189.291C24.5924 189.237 24.5557 189.465 24.8751 188.617C24.9851 188.325 25.2373 187.542 25.5623 186.793C25.941 185.67 28.3202 179.892 28.4583 179.487C28.4606 179.474 28.1081 180.28 28.3178 179.724C28.5977 178.985 28.4051 179.673 28.7681 178.827C28.8205 178.697 29.8168 176.341 29.848 176.263C30.1101 175.532 29.2054 177.577 29.2144 177.547C29.2301 177.469 29.958 175.759 29.9928 175.692C30.0247 175.627 29.4798 177.043 30.1844 175.363C30.0936 175.551 30.003 175.74 29.9127 175.928C30.2406 175.136 30.3159 175.08 30.4017 174.891C30.6696 174.304 30.8891 173.638 31.3909 172.73C31.5237 172.49 31.3601 172.914 31.3773 172.885C31.5396 172.598 31.638 172.183 31.8975 171.758C31.9175 171.727 31.473 172.786 32.307 170.961C32.2442 171.084 32.1814 171.207 32.1187 171.33C32.2229 171.066 33.0688 169.22 33.1889 168.976C33.5358 168.258 33.2773 168.905 33.6152 168.176C33.3423 168.617 34.3836 166.407 34.3689 166.556C34.46 166.22 35.4027 164.382 35.8382 163.507C36.1112 162.953 36.6475 161.819 36.7382 161.646C36.8483 161.435 36.8534 161.519 37.0547 161.14C37.1129 161.03 37.6566 159.884 38.2116 158.9C38.3189 158.71 38.5923 158.335 38.4224 158.704C38.1292 159.338 37.4882 160.472 37.5334 160.477C37.5811 160.48 38.3569 158.9 38.5828 158.479C39.6161 156.543 39.0761 157.691 39.1147 157.647C39.2131 157.533 39.7657 156.473 39.7919 156.432C39.9002 156.255 39.5322 157.017 39.5455 157.039C39.563 157.065 40.1421 156.07 40.029 156.306C39.8666 156.643 39.3394 157.561 39.3103 157.622C38.9311 158.411 39.5413 157.376 39.7225 157.1C39.7774 157.016 39.6072 157.376 39.6482 157.304C40.273 156.204 39.6909 157.025 40.0895 156.285C40.4456 155.627 40.0342 156.499 40.0497 156.475C40.069 156.443 40.4885 155.652 40.5675 155.536C40.6054 155.477 39.5956 157.576 39.6746 157.509C40.0116 156.845 40.35 156.184 40.6895 155.526C40.7593 155.496 40.2297 156.423 40.183 156.523C40.0883 156.725 40.3986 156.187 40.3998 156.218C40.4017 156.235 40.0937 156.895 40.4124 156.32C40.5229 156.122 40.71 155.693 41.1309 154.976C39.8276 157.53 40.7818 155.787 40.8353 155.722C40.889 155.657 40.287 156.881 41.0548 155.415C41.1717 155.396 41.0643 155.46 40.859 155.884C40.6081 156.403 41.2563 155.237 40.2537 157.093C40.348 157.006 41.1353 155.507 41.1811 155.43C41.22 155.364 41.0631 155.706 41.1324 155.591C41.9592 154.218 41.4086 155.17 41.6747 154.787C41.6982 154.752 42.4304 153.43 41.8935 154.448C40.9134 156.31 40.467 157.038 40.4199 157.414C41.1826 156.078 41.9923 154.382 42.215 153.967C42.5545 153.332 42.2248 154.002 42.2736 153.927C42.2903 153.901 42.5827 153.354 42.5886 153.348C42.8891 153.002 41.2748 155.792 40.8325 156.681C40.9713 156.45 41.1103 156.219 41.2494 155.989C41.0795 156.311 40.9099 156.634 40.7407 156.958C41.5779 155.435 40.779 156.908 40.651 157.332C40.6222 157.426 41.1248 156.399 40.5651 157.578C41.022 156.732 40.8944 157.011 41.2793 156.231C41.2975 156.265 40.4196 158.015 40.0789 158.714C41.3757 156.305 40.5448 157.63 41.703 155.576C41.8731 155.169 41.3505 156.17 41.3885 156.084C41.5188 155.786 41.9196 155.112 42.2877 154.247C42.3476 154.107 42.004 154.654 42.4582 153.815C42.5084 153.722 42.8294 153.205 42.8278 153.214C42.8148 153.298 42.5198 153.822 42.5186 153.85C42.5175 153.875 42.8301 153.282 42.834 153.282C42.8755 153.281 42.5803 153.78 42.6303 153.712C42.7383 153.563 43.9525 151.482 42.4374 154.237C43.6432 151.919 42.5601 153.92 42.0923 154.83C41.9729 155.061 41.9608 155.13 41.7926 155.461C41.5756 155.89 41.3103 156.369 41.199 156.589C41.0802 156.825 41.8226 155.522 40.8006 157.434C41.3547 156.482 42.2265 154.727 42.7764 153.786C43.8822 151.892 42.1262 155.171 41.9511 155.525C41.9039 155.618 42.0933 155.324 42.0624 155.386C42.0063 155.494 41.0155 157.34 40.9407 157.538C40.8658 157.733 41.298 156.854 41.3507 156.809C41.3851 156.776 40.234 159.045 40.8816 157.829C41.3273 156.99 42.0828 155.422 42.2906 155.189C41.6333 156.433 40.9972 157.656 40.3575 158.904C40.7343 158.237 41.1126 157.572 41.4921 156.912C40.7731 158.296 40.1171 159.495 39.4776 160.838C41.1884 157.692 39.0102 161.903 39.0035 161.954C39.0011 161.972 39.7002 160.753 39.815 160.559C39.271 161.671 37.5939 165.074 38.6629 163.128C38.4647 163.479 38.0759 164.375 38.0852 164.365C38.1742 164.27 39.1005 162.357 38.9778 162.684C38.8348 163.061 38.5331 163.539 38.2624 164.096C36.8833 166.953 37.4507 166.253 36.0536 169.107C36.0873 169.053 36.1209 168.999 36.1546 168.945C34.6677 172.057 33.235 175.197 31.8684 178.36C31.3892 179.623 30.0517 182.951 29.4038 184.59C29.2698 184.919 28.6076 186.531 28.5568 186.652C28.4586 186.875 28.9366 185.625 28.6993 186.182C28.6437 186.3 27.5925 189.042 27.7009 188.863C27.8206 188.55 28.1656 187.584 28.2343 187.428C28.6786 186.324 25.5356 194.841 25.4636 195.301C25.538 195.114 25.6127 194.927 25.6877 194.739C25.4994 195.282 25.3139 195.824 25.1315 196.365ZM32.2741 170.698C32.3872 170.367 32.7776 169.587 32.9869 169.116C33.2741 168.467 33.6722 167.311 33.5714 167.842C33.1322 168.795 32.7017 169.743 32.2741 170.698ZM26.2394 184.752C26.5124 184.104 26.3843 184.64 26.1472 185.165C26.121 185.223 25.8719 185.629 26.2394 184.752ZM29.0482 177.947C29.0376 177.974 28.799 178.533 28.7898 178.552C28.5496 179.041 29.2687 177.359 29.0482 177.947ZM18.0882 211.771C18.2451 211.001 18.0603 211.545 17.9906 212.028C17.9862 212.058 18.0778 211.822 18.0882 211.771ZM18.2037 211.226C18.386 210.655 18.5254 209.447 18.3312 210.389C18.3119 210.48 18.1945 211.253 18.2037 211.226ZM27.1886 182.433C27.1813 182.514 26.9014 183.183 26.7823 183.469C26.7648 183.454 27.0785 182.713 27.1886 182.433ZM21.0947 199.772C21.0991 199.808 21.8373 197.388 21.8711 197.215C21.7561 197.601 21.0833 199.74 21.0947 199.772ZM19.4001 206.014C19.4181 205.954 19.6292 205.112 19.6075 205.132C19.4793 205.538 19.3158 206.288 19.4001 206.014ZM16.8689 218.664C16.8679 218.711 17.057 218.08 16.7807 219.602C16.7405 219.825 16.821 219.019 16.807 219.098C16.7767 219.265 16.7556 219.396 16.7408 219.502C16.8266 218.789 16.9331 218.043 16.9502 217.972C17.0298 217.639 16.8689 218.643 16.8689 218.664ZM16.2344 225.418C16.2398 225.571 16.1736 226.531 16.1572 226.747C16.1542 226.785 16.1169 226.62 16.0997 227.05C16.087 227.395 16.155 226.882 16.1193 227.553C16.086 228.23 16.0878 227.324 16.0838 227.383C16.0755 227.463 16.0605 228.51 16.0363 228.476C16.0153 228.452 16.0675 227.331 16.0787 227.051C16.0905 226.694 16.0357 227.126 16.0734 226.528C16.0982 226.152 16.1449 226.364 16.1522 226.285C16.1556 226.219 16.2089 224.897 16.234 225.42C16.2341 225.42 16.2342 225.419 16.2344 225.418ZM16.7179 219.695C16.723 219.641 16.7302 219.578 16.7408 219.502C16.733 219.567 16.7254 219.632 16.7179 219.695ZM31.457 172.553C31.2906 172.878 31.7151 171.881 31.907 171.518C31.9268 171.52 31.483 172.501 31.457 172.553ZM16.6805 220.36C16.5358 221.439 16.6088 220.628 16.7179 219.695C16.6898 219.995 16.7296 220.007 16.6805 220.36ZM24.029 190.912C24.0099 190.953 23.994 190.978 23.9824 190.978C24.0332 190.87 24.0429 190.862 24.029 190.912ZM23.1933 193.26C22.9492 194.083 23.5093 192.432 23.4847 192.434C23.4739 192.436 23.2026 193.227 23.1933 193.26ZM17.8861 212.755C17.9052 212.678 17.7656 213.9 18.0388 212.139C17.8393 213.069 18.026 212.084 18.0148 212.096C17.9794 212.13 17.6953 213.699 17.6236 214.041C17.6173 214.32 17.8226 213.009 17.8857 212.757C17.8859 212.756 17.886 212.755 17.8861 212.755ZM16.44 237.7C16.3868 237.484 16.3214 236.809 16.2811 236.346C16.3272 236.56 16.3863 237.238 16.44 237.7ZM118.872 277.156C115.726 277.218 115.339 277.107 118.196 277.123C118.253 277.123 119.064 277.142 118.872 277.156ZM92.0146 276.561C91.7207 276.496 92.703 276.544 93.3424 276.596C93.4873 276.608 94.0206 276.684 93.4081 276.662C93.4309 276.606 92.4842 276.533 92.0146 276.561ZM16.6371 220.973C16.6305 221.291 16.5015 222.254 16.4486 222.758C16.4512 222.448 16.5724 221.423 16.6371 220.973ZM108.581 277.102C108.254 277.094 108.032 277.132 108.088 277.137C108.342 277.156 108.954 277.13 108.581 277.102ZM17.0539 217.899C17.0774 217.859 16.914 219.122 16.8576 219.202C16.8961 218.935 17.0363 217.929 17.0539 217.899ZM16.3595 236.832C16.3483 236.637 16.4711 237.643 16.5042 237.969C16.4783 237.941 16.3639 236.962 16.3595 236.832ZM103.276 277.01C102.982 276.999 102.244 276.977 102.161 276.991C102.059 277.009 103.142 277.033 103.276 277.01ZM158.148 274.209C158.189 274.212 157.036 274.432 156.55 274.483C155.597 274.588 158.092 274.216 158.148 274.209ZM111.71 277.109C112.638 277.153 111.608 277.11 111.648 277.151C112.276 277.157 113.818 277.161 112.757 277.118C112.55 277.11 112.002 277.113 111.71 277.109ZM110.851 277.09C110.751 277.103 110.075 277.14 110.659 277.141C110.928 277.142 111.362 277.098 110.851 277.09ZM151.11 275.134C150.268 275.197 154.097 274.766 154.191 274.753C154.248 274.75 154.285 274.748 154.307 274.748C154.436 274.72 155.163 274.624 155.253 274.642C155.031 274.669 154.439 274.748 154.377 274.752C154.348 274.754 154.326 274.756 154.311 274.756C154.084 274.815 151.247 275.129 151.11 275.134ZM144.79 275.74C145.733 275.6 145.902 275.675 145.823 275.686C144.803 275.819 145.464 275.689 145.433 275.689C145.361 275.69 144.631 275.789 144.793 275.74C144.792 275.74 144.791 275.74 144.79 275.74ZM149.811 275.263C149.852 275.258 150.655 275.172 150.687 275.17C151.348 275.128 149.073 275.371 149.811 275.263ZM16.1248 230.555C16.1176 231.141 16.0803 230.567 16.0946 230.176C16.0962 230.144 16.1333 230.038 16.1248 230.555ZM110.39 277.095C110.244 277.091 106.858 277.022 107.058 277.074C107.345 277.077 111.214 277.146 110.39 277.095ZM84.9653 276.038C85.5625 276.082 84.9081 276.083 84.59 276.041C84.4721 276.025 84.8148 276.027 84.9653 276.038ZM17.3675 216.197C17.446 215.569 17.5126 215.709 17.3914 216.248C17.3867 216.269 17.3644 216.221 17.3675 216.197ZM89.7504 276.389C87.6805 276.287 88.1885 276.171 90.8592 276.383C90.7753 276.384 90.6913 276.386 90.6074 276.388C93.7071 276.589 90.8117 276.413 90.0615 276.375C89.7737 276.361 90.0134 276.401 89.7524 276.389C89.7518 276.389 89.7511 276.389 89.7504 276.389ZM81.8081 275.79C79.8355 275.518 83.6261 275.903 84.7178 275.964C83.6602 275.931 82.2798 275.816 84.1508 276.006C81.4084 275.803 82.5507 275.846 82.4427 275.835C82.3134 275.821 81.8894 275.801 81.8081 275.79ZM87.0563 276.182C87.1727 276.187 88.0434 276.268 88.3563 276.284C87.9174 276.294 86.2848 276.151 87.0563 276.182ZM138.159 276.294C138.228 276.26 138.407 276.227 139.085 276.189C138.877 276.219 138.444 276.262 138.159 276.294ZM32.6901 170.163C32.8901 169.734 33.2984 168.887 33.1485 169.135C33.1324 169.163 32.6746 170.154 32.6901 170.163ZM100.491 276.862C100.396 276.857 97.8103 276.757 98.7023 276.823C98.9731 276.845 101.321 276.922 100.491 276.862ZM113.943 277.089C113.719 277.089 112.842 277.094 112.824 277.1C112.763 277.124 113.842 277.112 113.943 277.089ZM33.7277 168.015C33.7563 167.96 34.3729 166.653 34.2922 166.79C34.1373 167.05 33.6265 168.204 33.7277 168.015ZM16.228 232.67C16.233 232.791 16.2071 232.953 16.2084 232.995C16.2012 233.077 16.3441 235.348 16.2528 234.485C16.2165 234.323 16.1231 231.131 16.1464 230.702C16.187 230.54 16.158 231.919 16.1753 232.25C16.1778 232.309 16.2145 232.345 16.2278 232.669C16.2279 232.67 16.2279 232.67 16.228 232.67ZM141.721 275.997C141.809 275.965 144.399 275.726 144.375 275.76C143.482 275.844 142.596 275.923 141.721 275.997ZM140.4 276.096C139.84 276.119 141.149 276.013 141.527 275.991C141.534 276.009 140.484 276.093 140.4 276.096ZM109.02 276.958C108.76 276.962 109.559 277.011 109.38 277.017C109.259 277.021 108.688 276.999 108.502 277.009C108.45 277.012 109.038 277.058 109.208 277.058C109.455 277.059 109.216 277.026 109.485 277.029C110.379 277.038 111.165 277.065 111.991 277.068C112.066 277.068 111.487 277.044 112.124 277.047C112.223 277.048 112.808 277.082 113.57 277.077C115.285 276.979 116.484 277.069 118.646 277.007C118.564 276.999 116.952 276.993 116.866 276.992C115.088 276.994 111.879 276.992 109.997 276.971C109.512 276.966 109.747 276.989 109.538 276.987C109.374 276.986 109.565 276.95 109.02 276.958ZM32.6038 170.399C32.7326 170.211 33.0431 169.484 33.2589 169.028C33.1524 169.174 32.8179 169.955 32.6038 170.399ZM128.762 276.745C128.513 276.757 127.734 276.777 127.669 276.79C127.588 276.809 128.711 276.774 128.762 276.745ZM18.0534 245.189C18.0589 245.208 18.2338 245.815 18.2404 245.837C18.368 246.383 17.8502 244.58 18.0534 245.189ZM24.8521 258.425C25.1624 258.793 25.4828 259.139 25.5668 259.279C25.3673 259.053 24.7997 258.399 24.8521 258.425ZM41.8439 269.687C41.7835 269.627 43.0773 270.086 43.3319 270.163C43.2246 270.153 41.9291 269.752 41.8439 269.687ZM138.05 276.174C138.895 276.118 138.712 276.069 139.245 276.059C139.332 276.057 139.623 276.164 138.698 276.183C138.53 276.186 139.182 276.11 138.05 276.174ZM91.2933 276.409C91.5082 276.395 92.1898 276.441 92.6458 276.468C92.5433 276.482 91.6165 276.426 91.2933 276.409ZM34.8808 165.675C35.0869 165.332 35.8687 163.672 35.6468 164.069C35.6148 164.125 34.9937 165.443 34.8808 165.675ZM16.5279 223.162C16.4871 223.923 16.6412 222.354 16.6705 221.85C16.6461 222.077 16.5293 223.111 16.5279 223.162ZM37.2757 267.817C37.3075 267.833 38.0786 268.188 38.0987 268.196C38.7031 268.506 36.5691 267.52 37.2757 267.817ZM22.0335 254.375C22.1964 254.625 23.2523 256.272 23.5026 256.633C23.2023 256.328 21.8008 254.083 22.0335 254.375ZM134.566 276.413C135.17 276.376 135.739 276.349 136.285 276.325C136.175 276.354 134.634 276.425 134.566 276.413ZM40.028 268.994C40.069 269.01 40.108 269.028 40.1472 269.043C40.1065 269.027 40.0668 269.01 40.028 268.994ZM121.019 276.922C120.517 276.924 120.621 276.959 120.653 276.96C121.032 276.965 121.587 276.92 121.019 276.922ZM32.8983 169.897C33.0032 169.751 33.3393 168.967 33.5563 168.526C33.4705 168.644 33.0613 169.536 32.8983 169.897ZM79.6948 275.542C79.0662 275.451 81.6412 275.629 82.1834 275.694C82.2156 275.721 79.791 275.557 79.6948 275.542ZM16.8321 220.799C16.8641 220.743 16.9684 219.663 16.9272 219.89C16.8997 220.032 16.8117 220.824 16.8321 220.799ZM83.4889 275.813C83.7333 275.824 84.2978 275.893 84.0971 275.894C83.8395 275.895 83.4258 275.81 83.4889 275.813ZM105.304 276.872C105.188 276.866 103.772 276.86 104.357 276.901C104.764 276.929 104.828 276.892 104.925 276.894C105.036 276.898 107.348 276.992 105.304 276.872ZM65.2593 273.993C65.7958 274.05 66.4401 274.14 66.9978 274.206C66.7693 274.196 65.4848 274.044 65.2593 273.993ZM16.4327 225.016C16.4365 224.887 16.7789 221.308 16.5539 223.34C16.5352 223.462 16.3684 225.406 16.4327 225.016ZM138.05 276.174C137.943 276.181 137.82 276.189 137.676 276.196C137.819 276.187 137.943 276.18 138.05 276.174ZM128.421 276.693C128.614 276.666 127.638 276.7 127.347 276.721C127.26 276.748 128.396 276.697 128.421 276.693ZM67.0434 274.185C67.3655 274.212 67.9588 274.294 68.3603 274.339C68.2915 274.35 67.1772 274.22 67.0434 274.185ZM44.3468 270.381C44.9736 270.576 45.7729 270.781 45.7913 270.762C45.8039 270.769 45.8344 270.781 45.8859 270.798C45.9332 270.815 46.6527 270.987 46.9373 271.061C48.7097 271.621 40.0684 269.175 45.0623 270.541C44.8224 270.489 44.5838 270.436 44.3468 270.381ZM20.7978 252.034C20.6485 251.688 20.1707 250.748 20.2776 251C20.3455 251.179 20.941 252.383 20.7978 252.034ZM29.9283 263.206C29.8384 263.135 29.0259 262.492 28.9995 262.484C29.4386 262.882 30.3231 263.545 29.9283 263.206ZM19.6257 249.383C19.5394 249.162 19.388 248.895 19.3965 248.922C19.469 249.154 19.7551 249.761 19.6257 249.383ZM136.274 276.175C135.938 276.184 134.857 276.281 134.62 276.323C134.575 276.32 134.456 276.32 134.236 276.324C134.237 276.324 134.237 276.324 134.238 276.323C133.917 276.353 125.096 276.734 131.039 276.522C131.224 276.515 130.972 276.502 131.723 276.469C131.772 276.467 131.798 276.487 131.95 276.48C132.289 276.467 134.2 276.377 134.575 276.337C134.578 276.34 134.603 276.343 134.655 276.343C135.125 276.347 136.537 276.168 136.274 276.175ZM31.5711 264.422C31.4058 264.299 30.8782 263.927 30.8146 263.901C31.0624 264.101 31.9516 264.71 31.5711 264.422ZM16.5166 224.908C16.5598 224.502 16.6213 223.457 16.5793 223.771C16.55 223.964 16.4636 225.381 16.5166 224.908ZM26.5556 260.163C28.267 261.909 26.9664 260.576 27.2499 260.822C27.0148 260.605 26.7833 260.385 26.5556 260.163ZM147.189 275.364C146.81 275.395 147.251 275.298 147.666 275.285C147.797 275.281 147.401 275.346 147.189 275.364ZM164.049 273.069C163.718 273.082 165.306 272.818 164.697 272.964C164.67 272.97 164.075 273.066 164.049 273.069ZM152.272 274.775C152.012 274.839 151.857 274.861 151.148 274.934C152.195 274.804 151.208 274.891 152.272 274.775ZM45.7851 270.757C45.789 270.759 45.7922 270.761 45.7913 270.762C45.7869 270.76 45.7852 270.758 45.7851 270.757ZM18.8223 247.261C18.7481 246.968 18.4881 246.158 18.5389 246.408C18.5424 246.433 18.7613 247.152 18.8223 247.261ZM134.62 276.323C134.659 276.326 134.64 276.33 134.575 276.337C134.571 276.333 134.588 276.329 134.62 276.323ZM20.5686 251.467C20.5324 251.451 21.1058 252.606 21.1388 252.651C21.5203 253.291 20.7922 251.948 20.5686 251.467ZM17.5438 216.578C17.5523 216.513 17.4317 216.925 17.412 217.185C17.3965 217.387 17.5115 216.824 17.5438 216.578ZM154.693 274.463C155.102 274.41 155.665 274.335 155.771 274.346C155.506 274.378 154.688 274.482 154.693 274.463ZM163.449 273.141C163.01 273.249 161.886 273.44 161.24 273.539C161.205 273.507 163.029 273.227 163.449 273.141ZM137.368 276.118C137.336 276.119 136.323 276.173 136.462 276.19C136.669 276.215 137.653 276.113 137.368 276.118ZM17.2179 218.517C17.1718 218.965 17.3724 217.948 17.4049 217.469C17.4197 217.223 17.2238 218.442 17.2179 218.517ZM18.0815 244.719C17.9094 244.146 18.2742 245.58 18.3697 245.78C18.2893 245.509 18.1411 244.922 18.0815 244.719ZM28.6599 262.061C27.3052 260.738 27.9755 261.532 28.231 261.75C28.2666 261.781 28.693 262.094 28.6599 262.061ZM37.066 161.597C37.1745 161.356 36.6986 162.217 36.6652 162.343C36.6445 162.421 36.9964 161.75 37.066 161.597ZM54.8028 272.459C54.7252 272.448 54.6481 272.436 54.5718 272.425C54.6292 272.432 54.7045 272.443 54.8028 272.459ZM17.0706 239.363C17.1662 240.695 17.2389 240.539 17.2556 240.653C17.2976 240.9 17.371 241.461 17.4737 241.934C17.3503 241.394 17.2423 240.884 17.1391 240.354C17.1609 240.761 17.932 244.43 18.0019 244.481C18.0523 244.583 17.7567 243.456 17.7544 243.42C17.746 243.372 17.773 243.178 17.7512 243.072C17.6894 242.895 17.1007 239.86 17.0706 239.363ZM25.8072 259.264C26.0058 259.497 26.045 259.58 26.1468 259.681C26.1817 259.715 26.2064 259.702 26.3252 259.819C26.15 259.635 25.9774 259.45 25.8072 259.264ZM16.6697 237.006C16.6593 236.628 16.8359 238.304 16.8465 238.363C16.8602 238.657 16.669 237.302 16.6697 237.006ZM20.3148 250.874C20.2854 250.82 19.7695 249.614 19.7614 249.629C19.8725 249.96 20.6009 251.553 20.3148 250.874ZM26.4676 259.967C26.7803 260.305 27.3881 260.94 27.3452 260.84C27.3447 260.839 27.3442 260.839 27.3437 260.838C27.0452 260.552 26.7532 260.262 26.4676 259.967ZM17.0957 220.048C17.2672 219.234 17.1334 219.614 17.0209 220.339C17.0221 220.562 17.0678 220.182 17.0957 220.048ZM17.518 217.411C17.5589 217.176 17.948 214.809 17.8547 215.167C17.8187 215.288 17.6194 216.652 17.6083 216.719C17.5896 216.814 17.6222 216.371 17.5127 217.104C17.5319 217.063 17.5018 217.489 17.518 217.411ZM17.2262 219.373C17.3868 218.56 17.326 218.362 17.2382 218.98C17.2044 219.221 17.2035 219.488 17.2262 219.373ZM16.8224 222.752C16.8596 222.454 16.9554 221.66 16.991 221.104C16.9021 221.842 16.8226 222.577 16.7526 223.307C16.7617 223.393 16.7889 223.012 16.8226 222.75C16.8225 222.75 16.8224 222.751 16.8224 222.752ZM168.305 271.952C167.649 272.07 169.14 271.73 169.184 271.723C169.368 271.702 168.605 271.899 168.305 271.952ZM40.1331 157.41C40.2264 157.253 40.3111 157.164 40.4813 156.802C40.2725 157.146 40.064 157.491 39.8558 157.837C39.7615 158.142 40.0309 157.581 40.1331 157.41ZM41.0305 156.148C41.0053 156.199 41.2268 155.966 40.8338 156.586C40.566 157.007 41.7938 154.605 42.0641 154.19C41.8243 154.673 41.2455 155.716 41.0305 156.148ZM43.6027 152.161C43.6235 152.137 43.1438 153.039 43.0832 153.141C42.7638 153.675 43.4893 152.289 43.6027 152.161ZM42.0333 155.031C42.2762 154.612 41.7803 155.563 41.6239 155.838C41.5933 155.861 41.9961 155.094 42.0333 155.031ZM161.529 271.951C161.022 271.975 160.588 272.174 161.359 272.022C161.396 272.015 161.551 271.95 161.529 271.951ZM43.2024 153.08C42.9587 153.494 43.456 152.555 43.6161 152.283C43.6443 152.264 43.2393 153.017 43.2024 153.08ZM161.155 271.869C160.478 271.936 160.735 272.039 160.821 272.031C161.162 272.001 162.365 271.743 162.609 271.685C160.773 272.019 161.485 271.834 161.155 271.869ZM158.031 272.438C157.397 272.546 159.025 272.338 159.309 272.252C159.007 272.301 158.213 272.407 158.031 272.438ZM154.166 272.918C153.834 272.956 152.819 273.069 152.647 273.112C153.026 273.063 154.03 272.959 154.166 272.918ZM153.394 272.947C152.858 272.982 152.74 273.087 153.352 272.985C153.376 272.981 153.414 272.946 153.394 272.947ZM150.389 273.269C150.034 273.273 149.64 273.403 150.212 273.342C150.381 273.324 150.426 273.269 150.389 273.269ZM160.284 271.853C159.779 271.917 159.131 272.08 160.216 271.918C159.845 271.986 159.44 272.058 159.089 272.121C160.495 271.941 160.387 271.867 160.783 271.808C161.336 271.724 161.301 271.801 161.195 271.841C161.639 271.726 163.561 271.4 164.714 271.171C163.698 271.346 162.118 271.588 161.139 271.735C160.865 271.776 160.599 271.838 160.36 271.874C159.976 271.931 160.313 271.85 160.286 271.853C160.286 271.853 160.285 271.853 160.284 271.853ZM146.427 273.681C145.374 273.741 146.046 273.765 146.637 273.692C146.662 273.688 146.454 273.679 146.427 273.681ZM44.0904 152.004C43.3977 153.198 43.8329 152.284 42.5204 154.877C43.0527 153.776 42.5195 154.8 42.6139 154.58C42.6898 154.403 43.0415 153.78 42.8148 154.13C43.1053 153.662 44.2276 151.585 44.2839 151.499C44.2834 151.499 44.2829 151.5 44.2825 151.501C44.3159 151.448 44.3117 151.624 44.0904 152.004ZM154.132 272.694C153.782 272.632 153.673 272.815 152.988 272.811C152.109 273.049 155.457 272.503 155.889 272.545C152.192 273.024 158.324 272.325 155.745 272.51C157.834 272.283 156.424 272.397 156.742 272.333C157.073 272.266 158.3 272.112 158.225 272.083C158.224 272.083 158.224 272.083 158.223 272.083C157.495 272.193 156.751 272.301 156.04 272.4C156.758 272.388 155.281 272.564 154.749 272.562C154.536 272.607 154.332 272.651 154.132 272.694ZM158.276 272.206C158.213 272.215 156.594 272.458 156.716 272.457C156.917 272.443 159.192 272.097 158.276 272.206ZM165.2 271.026C164.662 271.13 163.737 271.282 163.456 271.364C164.014 271.266 164.917 271.114 165.2 271.026ZM135.839 274.448C135.111 274.521 137.364 274.385 136.71 274.396C136.675 274.397 135.87 274.445 135.839 274.448ZM152.488 272.913C151.733 272.971 152.102 273.031 152.653 272.937C152.685 272.932 152.523 272.91 152.488 272.913ZM43.5655 152.991C43.5633 153.045 42.5918 154.806 42.4238 155.125C42.4983 154.931 43.5669 152.925 43.5655 152.991ZM166.175 270.739C165.034 270.878 163.513 271.259 163.365 271.282C163.202 271.308 163.449 271.224 163.412 271.23C163.346 271.242 161.55 271.554 161.466 271.568C161.407 271.58 161.727 271.583 161.375 271.659C162.101 271.518 165.346 270.949 165.48 270.906C165.617 270.874 164.61 271.014 166.173 270.739C166.174 270.739 166.174 270.739 166.175 270.739ZM162.953 271.342C163.396 271.288 162.166 271.506 161.847 271.549C161.16 271.646 162.909 271.349 162.953 271.342ZM159.958 271.816C159.8 271.836 158.535 272.023 158.429 272.064C159.025 272.011 160.287 271.777 159.958 271.816ZM145.6 273.582C145.271 273.617 144.348 273.681 144.296 273.708C144.634 273.675 145.551 273.609 145.6 273.582ZM40.5249 159.143C40.8001 158.652 40.2082 159.814 40.0266 160.149C40.0035 160.16 40.5012 159.185 40.5249 159.143ZM152.336 272.714C152.121 272.74 148.081 273.207 147.524 273.265C148.07 273.235 152.081 272.791 152.273 272.752C152.327 272.743 152.362 272.712 152.336 272.714ZM161.057 271.482C161.412 271.391 161.651 271.391 161.704 271.383C162.179 271.31 163.112 271.139 162.912 271.206C162.104 271.338 160.34 271.666 161.057 271.482ZM145.301 273.458C143.94 273.597 146.553 273.389 146.219 273.384C146.189 273.385 145.442 273.444 145.301 273.458ZM152.791 272.649C153.098 272.593 157.107 272.09 157.781 271.982C157.195 272.117 156.726 272.145 155.957 272.253C155.747 272.282 155.806 272.295 155.783 272.298C155.419 272.348 155.689 272.287 155.463 272.317C155.305 272.343 152.378 272.741 152.791 272.649ZM161.259 271.426C161.485 271.375 163.953 270.937 164.086 270.913C164.841 270.819 161.459 271.41 161.259 271.426ZM152.411 272.65C152.855 272.541 154.837 272.33 153.485 272.529C153.355 272.548 152.797 272.591 152.411 272.65ZM145.441 273.39C145.378 273.395 143.945 273.514 143.917 273.534C144.135 273.524 146.205 273.338 145.441 273.39ZM146.176 273.258C146.143 273.262 146.483 273.265 145.805 273.325C145.75 273.33 145.647 273.3 144.808 273.392C144.638 273.411 144.374 273.461 144.393 273.461C145.266 273.448 147.934 273.066 146.176 273.258ZM161.299 271.387C161.169 271.391 161.457 271.293 161.775 271.266C161.911 271.254 161.653 271.328 161.299 271.387ZM140.886 273.765C141.73 273.67 139.066 273.869 138.954 273.882C139.027 273.897 140.805 273.776 140.886 273.765ZM40.1289 160.423C40.1292 160.422 40.1295 160.421 40.1298 160.421C39.8026 161.046 39.9792 160.645 39.9633 160.675C39.2503 161.993 39.4823 161.666 39.382 161.877C39.1682 162.333 39.1425 162.229 38.7871 163.002C39.3795 161.727 38.8215 162.878 38.7817 162.903C38.6206 162.998 39.664 161.253 39.9639 160.624C40.0055 160.536 39.6506 161.161 39.7557 160.935C40.0956 160.199 41.3973 158.016 40.1289 160.423ZM162.006 271.222C162.341 271.141 164.76 270.734 164.124 270.873C163.987 270.907 161.558 271.345 162.006 271.222ZM46.5658 268.666C47.1537 268.791 45.8137 268.415 45.5691 268.363C45.4437 268.34 46.3046 268.613 46.5658 268.666ZM37.6946 265.333C37.0678 265.031 36.3795 264.787 37.1489 265.167C37.2305 265.207 37.7594 265.382 37.6946 265.333ZM83.0626 273.449C82.3223 273.352 82.3606 273.426 82.9068 273.469C83.0994 273.484 83.0859 273.452 83.0626 273.449ZM54.9743 270.217C54.9015 270.203 54.0535 270.077 54.0817 270.098C54.3941 270.157 55.4456 270.306 54.9743 270.217ZM83.2992 273.458C82.8578 273.436 83.6122 273.547 84.1521 273.538C83.8795 273.521 83.3446 273.46 83.2992 273.458ZM150.876 272.673C150.52 272.743 149.481 272.849 148.873 272.919C148.806 272.889 150.464 272.728 150.876 272.673ZM40.3498 266.566C39.7368 266.346 41.0228 266.889 40.9194 266.806C40.9025 266.799 40.373 266.575 40.3498 266.566ZM106.944 274.588C106.456 274.602 108.005 274.658 107.579 274.611C107.558 274.61 106.971 274.587 106.944 274.588ZM113.705 274.659C113.327 274.652 111.767 274.65 112.376 274.674C112.473 274.678 113.668 274.68 113.705 274.659ZM39.3875 161.927C39.5116 161.766 38.9828 162.795 38.9029 162.941C38.871 162.997 39.2251 162.136 39.3875 161.927ZM78.2676 273.035C77.8819 273.005 76.8905 272.903 76.718 272.907C77.1764 272.947 78.3915 273.087 78.2676 273.035ZM43.1807 267.605C42.6684 267.395 41.7055 267.051 41.9246 267.188C42.9605 267.551 41.8242 267.11 43.1807 267.605ZM85.7648 273.598C85.4598 273.572 85.2216 273.608 85.2559 273.613C85.5857 273.661 86.0665 273.64 85.7648 273.598ZM62.8063 271.308C62.7887 271.283 61.8146 271.164 61.9428 271.195C61.9837 271.206 62.8163 271.328 62.8063 271.308ZM138.036 273.825C137.585 273.835 138.955 273.72 139.354 273.714C139.553 273.735 138.096 273.824 138.036 273.825ZM94.2763 274.131C94.3248 274.1 92.7837 274.039 93.3892 274.098C93.5412 274.113 94.26 274.141 94.2763 274.131ZM109.006 274.55C107.965 274.581 112.327 274.649 111.181 274.588C111.104 274.586 109.088 274.549 109.006 274.55ZM116.1 274.594C115.922 274.591 116.011 274.479 116.743 274.516C116.84 274.521 116.39 274.554 116.469 274.56C116.514 274.565 118.109 274.565 118.191 274.56C118.271 274.556 118.176 274.522 118.257 274.517C118.349 274.511 119.342 274.529 119.857 274.521C120.828 274.505 120.929 274.472 121.008 274.47C121.237 274.465 121.627 274.479 122.106 274.468C124.496 274.417 128.113 274.263 130.006 274.238C128.309 274.289 126.746 274.375 125.057 274.436C125.542 274.36 122.62 274.555 124.33 274.434C123.553 274.489 116.651 274.621 116.102 274.594C116.101 274.594 116.1 274.594 116.1 274.594ZM35.335 264.035C35.7178 264.225 33.8328 263.095 33.6714 263.02C33.8969 263.189 35.2788 264.017 35.335 264.035ZM44.551 267.862C44.7477 267.912 44.9423 267.901 45.9696 268.222C45.9706 268.222 45.9715 268.222 45.9725 268.222C46.2745 268.315 45.9222 268.239 45.9764 268.261C45.9943 268.27 46.9439 268.558 46.1464 268.354C44.9419 268.035 46.0458 268.271 45.409 268.093C45.3277 268.074 44.1351 267.762 44.2035 267.789C44.2099 267.792 44.5653 267.891 44.6233 267.912C44.841 267.992 44.7265 267.982 44.7575 267.992C44.8499 268.032 46.7751 268.519 47.064 268.616C47.1306 268.667 43.9887 267.821 43.8994 267.761C43.8262 267.734 43.8771 267.682 43.8023 267.651C43.7633 267.64 42.5554 267.264 42.3803 267.192C42.3338 267.173 42.2985 267.159 42.2728 267.148C42.4518 267.236 41.3345 266.828 41.38 266.817C41.4005 266.817 42.1647 267.103 42.1938 267.114C42.2058 267.119 42.216 267.123 42.2257 267.127C42.0948 267.072 44.6447 267.907 44.1052 267.69C44.8574 267.9 43.9823 267.71 44.551 267.862ZM48.2585 268.793C48.1789 268.782 48.0993 268.771 48.02 268.759C49.2516 269.028 50.7014 269.345 52.2362 269.593C52.3474 269.611 52.4587 269.629 52.5699 269.647C52.9818 269.712 52.5146 269.596 53.0525 269.693C53.4833 269.77 53.9547 269.882 53.7188 269.854C53.6613 269.848 52.7859 269.685 52.3442 269.617C52.3065 269.611 52.2702 269.605 52.2352 269.6C51.0477 269.415 51.3575 269.496 51.2817 269.485C51.1964 269.472 50.3882 269.301 49.9545 269.216C48.8547 268.997 48.3973 268.928 46.9249 268.536C47.8118 268.73 47.3279 268.562 48.2585 268.793ZM100.771 274.301C100.826 274.28 101.761 274.33 102.099 274.337C102.046 274.358 101.112 274.309 100.771 274.301ZM23.7418 200.622C23.7843 200.341 23.1808 202.373 23.3672 201.845C23.4074 201.729 23.6646 200.879 23.7418 200.622ZM21.2866 209.851C21.233 210.13 21.5148 209.022 21.4877 209.017C21.4777 209.016 21.2927 209.815 21.2866 209.851ZM66.3408 271.584C66.3947 271.589 67.1705 271.691 67.1944 271.696C67.705 271.798 65.1487 271.463 66.3408 271.584ZM19.3339 221.244C19.4224 220.253 19.0771 223.223 19.2092 222.319C19.2141 222.274 19.328 221.292 19.3339 221.244ZM18.9524 225.341C18.9664 225.096 19.0606 224.074 19.0522 224.057C19.0337 224.037 18.9281 225.209 18.9524 225.341ZM85.9807 273.473C85.8695 273.424 87.2534 273.553 87.7478 273.58C87.8602 273.63 86.4585 273.502 85.9807 273.473ZM77.1769 272.713C83.0696 273.209 81.7645 273.189 76.8277 272.701C76.8232 272.673 76.8089 272.681 77.1769 272.713ZM84.7116 273.354C84.4961 273.365 83.8282 273.306 83.375 273.269C83.4583 273.257 84.3864 273.335 84.7116 273.354ZM24.5398 198.209C24.4584 198.573 23.941 200.125 24.0131 199.843C24.0272 199.778 24.5608 198.074 24.5398 198.209ZM66.8334 271.608C66.6992 271.551 68.4581 271.778 68.5943 271.802C69.136 271.902 66.969 271.616 66.8334 271.608ZM94.3431 273.945C94.6567 273.929 95.5388 273.988 96.1034 274.014C95.8454 274.03 94.8268 273.97 94.3431 273.945ZM90.225 273.692C90.261 273.693 91.0516 273.743 91.0865 273.747C91.7326 273.816 89.4958 273.675 90.225 273.692ZM40.8494 159.689C40.8381 159.712 40.5593 160.25 40.5487 160.268C40.2744 160.735 41.1113 159.122 40.8494 159.689Z" fill="black"/>
<g clip-path="url(#clip5_134_858)">
<path d="M176.326 253.907L209.24 260.765L184.004 282.981L183.799 267.484L176.326 253.907Z" fill="white"/>
<path d="M183.87 267.463L191.157 265.546M209.24 260.765L176.326 253.907L183.799 267.484L184.004 282.981L209.24 260.765Z" stroke="black" stroke-width="3" stroke-linecap="round" stroke-linejoin="round"/>
</g>
<path d="M65.0498 42.8999H65.875L65.7871 42.937L67.0176 44.2886L66.2588 44.1001V44.9175L66.2246 44.8364L64.8672 46.0737L65.0557 45.3179H64.2295L64.3174 45.2808L63.0869 43.9282L63.8467 44.1177V43.2993L63.8809 43.3813L65.2373 42.1431L65.0498 42.8999Z" fill="black" stroke="black" stroke-width="3" stroke-miterlimit="10"/>
<defs>
<clipPath id="clip0_134_858">
<rect width="13.8986" height="13.8986" fill="white" transform="translate(54.2383 92.5601) rotate(-15)"/>
</clipPath>
<clipPath id="clip1_134_858">
<rect width="13.8986" height="13.8986" fill="white" transform="translate(113.246 118.117) rotate(-15)"/>
</clipPath>
<clipPath id="clip2_134_858">
<rect width="13.8986" height="13.8986" fill="white" transform="translate(120.44 144.967) rotate(-15)"/>
</clipPath>
<clipPath id="clip3_134_858">
<rect width="13.8986" height="13.8986" fill="white" transform="translate(127.635 171.817) rotate(-15)"/>
</clipPath>
<clipPath id="clip4_134_858">
<rect width="13.8986" height="13.8986" fill="white" transform="translate(134.83 198.667) rotate(-15)"/>
</clipPath>
<clipPath id="clip5_134_858">
<rect width="37.8021" height="37.8021" fill="white" transform="translate(181.416 240.467) rotate(30.206)"/>
</clipPath>
</defs>
</svg>
