<svg width="323" height="263" viewBox="0 0 323 263" fill="none" xmlns="http://www.w3.org/2000/svg">
<rect x="50.7495" y="47.9443" width="234.542" height="171.884" rx="6" transform="rotate(-2.7432 50.7495 47.9443)" fill="white" stroke="black" stroke-width="3" stroke-linejoin="round"/>
<line x1="52.1367" y1="76.8933" x2="286.41" y2="65.6682" stroke="black" stroke-width="3"/>
<ellipse cx="232.429" cy="53.6502" rx="5.08033" ry="5.08033" transform="rotate(-2.7432 232.429 53.6502)" fill="white" stroke="black" stroke-width="3"/>
<ellipse cx="251.881" cy="52.7181" rx="5.08033" ry="5.08033" transform="rotate(-2.7432 251.881 52.7181)" fill="white" stroke="black" stroke-width="3"/>
<ellipse cx="271.333" cy="51.786" rx="5.08033" ry="5.08033" transform="rotate(-2.7432 271.333 51.786)" fill="white" stroke="black" stroke-width="3"/>
<rect x="99.738" y="101.352" width="142.636" height="93.5262" rx="4.5" transform="rotate(-2.7432 99.738 101.352)" fill="white" stroke="black" stroke-width="3"/>
<path d="M129.423 166.897L147.885 166.012C150.367 165.893 152.476 167.809 152.595 170.292L153.654 192.402L126.203 193.717L125.144 171.607C125.025 169.124 126.941 167.016 129.423 166.897Z" fill="#FFA8BA" stroke="black" stroke-width="3"/>
<path d="M165.345 155.851L182.114 155.047C184.596 154.928 186.705 156.844 186.824 159.327L188.329 190.74L162.571 191.974L161.066 160.561C160.947 158.079 162.863 155.97 165.345 155.851Z" fill="white" stroke="black" stroke-width="3"/>
<path d="M198.562 123.742L214.485 122.979C216.968 122.86 219.076 124.776 219.195 127.259L222.159 189.12L197.247 190.313L194.283 128.453C194.164 125.97 196.08 123.861 198.562 123.742Z" fill="#FAAE2B" stroke="black" stroke-width="3"/>
<rect x="5.85962" y="105.85" width="79.9787" height="19.8615" rx="4.5" transform="rotate(-2.7432 5.85962 105.85)" fill="white" stroke="black" stroke-width="3"/>
<path d="M19.7557 108.768L21.2809 112.795L25.5822 112.589L22.2235 115.284L23.7487 119.311L20.1477 116.95L16.789 119.645L17.9222 115.49L14.3212 113.129L18.6225 112.923L19.7557 108.768Z" fill="#FAAE2B"/>
<path d="M33.2874 108.12L34.8126 112.147L39.114 111.941L35.7553 114.636L37.2804 118.663L33.6795 116.302L30.3208 118.997L31.4539 114.842L27.853 112.481L32.1543 112.275L33.2874 108.12Z" fill="#FAAE2B"/>
<path d="M47.6659 107.431L49.1911 111.458L53.4924 111.252L50.1337 113.947L51.6589 117.974L48.0579 115.612L44.6992 118.307L45.8324 114.153L42.2314 111.791L46.5327 111.585L47.6659 107.431Z" fill="#FAAE2B"/>
<path d="M60.3519 106.823L61.8771 110.85L66.1784 110.644L62.8197 113.339L64.3449 117.366L60.7439 115.005L57.3852 117.7L58.5184 113.545L54.9174 111.184L59.2187 110.978L60.3519 106.823Z" fill="#00473E"/>
<path d="M73.0379 106.215L74.5631 110.242L78.8644 110.036L75.5057 112.731L77.0309 116.758L73.43 114.396L70.0713 117.091L71.2044 112.937L67.6034 110.575L71.9048 110.369L73.0379 106.215Z" fill="#00473E"/>
<mask id="path-16-inside-1_134_1339" fill="white">
<path d="M66.9848 169.13C70.2329 168.474 73.3977 170.576 74.0533 173.824L79.82 202.393C80.4756 205.642 78.3738 208.806 75.1257 209.462L62.3961 212.031L58.218 224.455L49.5488 214.625L36.8202 217.194C33.572 217.849 30.4073 215.748 29.7516 212.5L23.985 183.93C23.3294 180.682 25.4311 177.517 28.6792 176.862L66.9848 169.13Z"/>
</mask>
<path d="M66.9848 169.13C70.2329 168.474 73.3977 170.576 74.0533 173.824L79.82 202.393C80.4756 205.642 78.3738 208.806 75.1257 209.462L62.3961 212.031L58.218 224.455L49.5488 214.625L36.8202 217.194C33.572 217.849 30.4073 215.748 29.7516 212.5L23.985 183.93C23.3294 180.682 25.4311 177.517 28.6792 176.862L66.9848 169.13Z" fill="#FAAE2B"/>
<path d="M66.9848 169.13L66.3914 166.189L66.3913 166.189L66.9848 169.13ZM75.1257 209.462L75.7193 212.403L75.7194 212.403L75.1257 209.462ZM62.3961 212.031L61.8026 209.091L60.1048 209.433L59.5526 211.075L62.3961 212.031ZM58.218 224.455L55.9679 226.439L59.405 230.337L61.0615 225.411L58.218 224.455ZM49.5488 214.625L51.7989 212.64L50.6532 211.341L48.9552 211.684L49.5488 214.625ZM36.8202 217.194L37.4137 220.134L37.4137 220.134L36.8202 217.194ZM29.7516 212.5L32.6923 211.906L29.7516 212.5ZM23.985 183.93L21.0443 184.524L23.985 183.93ZM28.6792 176.862L28.0857 173.921L28.0856 173.921L28.6792 176.862ZM66.9848 169.13L67.5783 172.071C69.2025 171.743 70.7849 172.794 71.1127 174.418L74.0533 173.824L76.994 173.23C76.0106 168.358 71.2634 165.206 66.3914 166.189L66.9848 169.13ZM74.0533 173.824L71.1127 174.418L76.8793 202.987L79.82 202.393L82.7607 201.8L76.994 173.23L74.0533 173.824ZM79.82 202.393L76.8793 202.987C77.2071 204.611 76.1562 206.193 74.5321 206.521L75.1257 209.462L75.7194 212.403C80.5914 211.419 83.7442 206.672 82.7607 201.8L79.82 202.393ZM75.1257 209.462L74.5322 206.521L61.8026 209.091L62.3961 212.031L62.9897 214.972L75.7193 212.403L75.1257 209.462ZM62.3961 212.031L59.5526 211.075L55.3745 223.499L58.218 224.455L61.0615 225.411L65.2397 212.988L62.3961 212.031ZM58.218 224.455L60.4681 222.471L51.7989 212.64L49.5488 214.625L47.2987 216.609L55.9679 226.439L58.218 224.455ZM49.5488 214.625L48.9552 211.684L36.2266 214.253L36.8202 217.194L37.4137 220.134L50.1424 217.565L49.5488 214.625ZM36.8202 217.194L36.2266 214.253C34.6025 214.581 33.0201 213.53 32.6923 211.906L29.7516 212.5L26.8109 213.093C27.7944 217.965 32.5415 221.118 37.4137 220.134L36.8202 217.194ZM29.7516 212.5L32.6923 211.906L26.9257 183.337L23.985 183.93L21.0443 184.524L26.8109 213.093L29.7516 212.5ZM23.985 183.93L26.9257 183.337C26.5979 181.713 27.6487 180.13 29.2728 179.802L28.6792 176.862L28.0856 173.921C23.2134 174.905 20.0608 179.651 21.0443 184.524L23.985 183.93ZM28.6792 176.862L29.2728 179.802L67.5784 172.07L66.9848 169.13L66.3913 166.189L28.0857 173.921L28.6792 176.862Z" fill="black" mask="url(#path-16-inside-1_134_1339)"/>
<g clip-path="url(#clip0_134_1339)">
<path d="M43.7307 195.095C43.5573 194.235 44.1134 193.398 44.9728 193.224C45.8323 193.051 46.6697 193.607 46.8432 194.466L47.8902 199.654C48.0637 200.513 47.5076 201.351 46.6481 201.524C45.7887 201.698 44.9513 201.141 44.7778 200.282L43.7307 195.095Z" stroke="black" stroke-width="2" stroke-linejoin="round"/>
<path d="M46.9582 195.036C46.8766 194.632 46.8359 194.43 46.834 194.228C46.8324 194.049 46.8535 193.871 46.8968 193.697C46.9456 193.501 47.0323 193.314 47.2057 192.94L50.4998 185.84C50.5674 185.694 50.7003 185.59 50.8577 185.558C51.9501 185.337 53.0145 186.044 53.235 187.137L53.9352 190.605L54.1548 190.561C55.4139 190.307 56.0434 190.18 56.5577 190.338C57.0096 190.477 57.4019 190.764 57.672 191.152C57.9795 191.594 58.0501 192.232 58.1913 193.509L58.4657 195.991C58.5859 197.078 58.646 197.621 58.489 198.073C58.3508 198.471 58.0969 198.818 57.7599 199.071C57.3772 199.358 56.8413 199.467 55.7695 199.683L51.5243 200.54C50.3622 200.774 49.7812 200.892 49.2917 200.755C48.8611 200.635 48.4796 200.382 48.2018 200.031C47.8861 199.633 47.7688 199.052 47.5342 197.89L46.9582 195.036Z" stroke="black" stroke-width="2" stroke-linejoin="round"/>
</g>
<mask id="path-19-inside-2_134_1339" fill="white">
<path d="M310.492 111.68C313.727 112.398 315.767 115.603 315.049 118.837L308.04 150.404C307.322 153.639 304.117 155.679 300.882 154.96L286.77 151.827L277.225 162.236L272.982 148.766L258.869 145.632C255.634 144.913 253.594 141.709 254.312 138.474L261.321 106.908C262.04 103.673 265.245 101.633 268.479 102.351L310.492 111.68Z"/>
</mask>
<path d="M310.492 111.68C313.727 112.398 315.767 115.603 315.049 118.837L308.04 150.404C307.322 153.639 304.117 155.679 300.882 154.96L286.77 151.827L277.225 162.236L272.982 148.766L258.869 145.632C255.634 144.913 253.594 141.709 254.312 138.474L261.321 106.908C262.04 103.673 265.245 101.633 268.479 102.351L310.492 111.68Z" fill="#FFA8BA"/>
<path d="M315.049 118.837L317.978 119.488L317.978 119.488L315.049 118.837ZM286.77 151.827L287.42 148.898L285.729 148.523L284.559 149.799L286.77 151.827ZM277.225 162.236L274.364 163.137L275.924 168.093L279.436 164.263L277.225 162.236ZM272.982 148.766L275.844 147.864L275.324 146.212L273.633 145.837L272.982 148.766ZM261.321 106.908L258.393 106.257L258.393 106.257L261.321 106.908ZM310.492 111.68L309.842 114.608C311.459 114.967 312.48 116.57 312.12 118.187L315.049 118.837L317.978 119.488C319.055 114.635 315.995 109.828 311.143 108.751L310.492 111.68ZM315.049 118.837L312.12 118.187L305.111 149.753L308.04 150.404L310.969 151.054L317.978 119.488L315.049 118.837ZM308.04 150.404L305.111 149.753C304.752 151.371 303.15 152.391 301.532 152.032L300.882 154.96L300.232 157.889C305.084 158.967 309.891 155.906 310.969 151.054L308.04 150.404ZM300.882 154.96L301.532 152.032L287.42 148.898L286.77 151.827L286.119 154.756L300.232 157.889L300.882 154.96ZM286.77 151.827L284.559 149.799L275.014 160.208L277.225 162.236L279.436 164.263L288.981 153.854L286.77 151.827ZM277.225 162.236L280.086 161.335L275.844 147.864L272.982 148.766L270.121 149.667L274.364 163.137L277.225 162.236ZM272.982 148.766L273.633 145.837L259.519 142.703L258.869 145.632L258.219 148.56L272.332 151.694L272.982 148.766ZM258.869 145.632L259.519 142.703C257.902 142.344 256.882 140.742 257.241 139.124L254.312 138.474L251.384 137.824C250.306 142.676 253.367 147.483 258.219 148.56L258.869 145.632ZM254.312 138.474L257.241 139.124L264.25 107.558L261.321 106.908L258.393 106.257L251.384 137.824L254.312 138.474ZM261.321 106.908L264.25 107.558C264.609 105.94 266.212 104.92 267.829 105.28L268.479 102.351L269.13 99.4222C264.277 98.3448 259.47 101.405 258.393 106.257L261.321 106.908ZM268.479 102.351L267.829 105.28L309.842 114.608L310.492 111.68L311.143 108.751L269.13 99.4222L268.479 102.351Z" fill="black" mask="url(#path-19-inside-2_134_1339)"/>
<path d="M294.883 124.472C293.316 122.106 290.083 121.388 287.663 122.869L286.168 123.914L285.256 122.334C283.689 119.968 280.456 119.251 278.035 120.731C275.615 122.211 274.922 125.329 276.489 127.695L283.109 137.691L293.336 131.436C295.757 129.956 296.45 126.838 294.883 124.472Z" stroke="black" stroke-width="2" stroke-linejoin="round"/>
<g clip-path="url(#clip1_134_1339)">
<path d="M70.7107 66.4848C73.2797 66.3617 75.2625 64.1793 75.1394 61.6103L70.4878 61.8332L70.2649 57.1816C67.6959 57.3047 65.7131 59.487 65.8362 62.0561C65.9592 64.6251 68.1416 66.6079 70.7107 66.4848Z" stroke="black" stroke-width="2" stroke-linejoin="round"/>
<path d="M77.5348 58.5286C77.4229 56.1931 75.4389 54.3906 73.1035 54.5025L73.3061 58.7312L77.5348 58.5286Z" stroke="black" stroke-width="2" stroke-linejoin="round"/>
</g>
<path d="M29.2309 20.4097C31.6386 23.8324 34.6418 26.4664 37.9295 27.9266L39.702 28.7141L38.5292 30.2589C36.3531 33.124 34.9929 36.8799 34.5353 41.0394L34.4604 41.7171L34.068 41.1596C31.6603 37.7369 28.657 35.1029 25.3694 33.6426L23.596 32.8553L24.7697 31.3103C26.9457 28.4452 28.306 24.6893 28.7636 20.5298L28.8382 19.8512L29.2309 20.4097Z" fill="black" stroke="black" stroke-width="3"/>
<path d="M288.993 237.884L290.563 238.514L289.729 238.529L290.469 240.515C290.507 240.616 290.54 240.719 290.571 240.823L289.534 240.075L288.906 241.64L288.892 240.812L286.902 241.557C286.799 241.595 286.695 241.629 286.589 241.661L287.337 240.624L285.766 239.995L286.6 239.98L285.859 237.993C285.821 237.891 285.787 237.788 285.756 237.683L286.796 238.434L287.423 236.868L287.436 237.697L289.426 236.952C289.529 236.914 289.634 236.879 289.739 236.848L288.993 237.884Z" fill="black" stroke="black" stroke-width="3" stroke-miterlimit="10"/>
<defs>
<clipPath id="clip0_134_1339">
<rect width="16.9344" height="16.9344" fill="white" transform="translate(40.9131 186.485) rotate(-11.4117)"/>
</clipPath>
<clipPath id="clip1_134_1339">
<rect width="13.5475" height="13.5475" fill="white" transform="translate(64.6055 54.062) rotate(-2.7432)"/>
</clipPath>
</defs>
</svg>
