<svg width="314" height="300" viewBox="0 0 314 300" fill="none" xmlns="http://www.w3.org/2000/svg">
<path d="M301.233 279.583C300.932 279.838 300.655 280.134 300.408 280.476L299.286 282.033L301.066 282.746C301.971 283.109 302.784 283.657 303.483 284.339C303.152 284.291 302.811 284.267 302.463 284.273L300.342 284.309L301.083 286.296C301.427 287.221 301.605 288.22 301.621 289.224C301.366 288.924 301.07 288.645 300.728 288.398L299.172 287.275L298.458 289.057C298.096 289.961 297.548 290.773 296.868 291.473C296.916 291.143 296.941 290.805 296.935 290.458L296.9 288.333L294.91 289.077C293.98 289.425 292.979 289.604 291.973 289.622C292.273 289.367 292.551 289.071 292.798 288.73L293.92 287.173L292.14 286.46C291.235 286.097 290.422 285.548 289.722 284.866C290.054 284.914 290.395 284.939 290.743 284.933L292.864 284.897L292.123 282.91C291.779 281.985 291.6 280.986 291.585 279.98C291.839 280.281 292.135 280.56 292.478 280.808L294.034 281.931L294.748 280.149C295.11 279.245 295.658 278.432 296.338 277.732C296.289 278.062 296.266 278.401 296.271 278.748L296.306 280.873L298.296 280.129C299.226 279.781 300.227 279.601 301.233 279.583Z" fill="black" stroke="black" stroke-width="3" stroke-miterlimit="10"/>
<rect x="193.869" y="147.945" width="99.6994" height="78.7178" rx="9.5" transform="rotate(9.21695 193.869 147.945)" fill="#00473E" stroke="black" stroke-width="3"/>
<path d="M203.247 149.466L282.904 162.392C288.083 163.232 291.6 168.112 290.76 173.291L282.857 221.995L184.445 206.026L192.348 157.322C193.188 152.143 198.068 148.626 203.247 149.466Z" fill="white" stroke="black" stroke-width="3"/>
<path d="M224.876 240.238L234.77 241.843C239.047 242.537 241.951 246.566 241.258 250.842C241.142 251.553 240.472 252.036 239.762 251.921L216.955 248.22C216.244 248.104 215.762 247.434 215.878 246.724C216.572 242.448 220.6 239.544 224.876 240.238Z" fill="white" stroke="black" stroke-width="3"/>
<path d="M69.6299 66.1948L158.767 49.4318C161.209 48.9725 163.561 50.5802 164.021 53.0226L174.676 109.683L76.6946 128.109L66.0391 71.449C65.5798 69.0065 67.1875 66.6542 69.6299 66.1948Z" fill="white" stroke="black" stroke-width="3"/>
<rect x="75.3183" y="72.9909" width="82.0307" height="46.6933" rx="4.5" transform="rotate(-10.6506 75.3183 72.9909)" fill="#FFA8BA" stroke="black" stroke-width="3"/>
<path d="M67.8164 129.46L183.44 107.716C184.562 107.505 185.643 108.244 185.854 109.366C186.915 115.007 183.202 120.439 177.561 121.5L78.301 140.167C72.6603 141.228 67.2275 137.515 66.1667 131.874C65.9559 130.752 66.6944 129.672 67.8164 129.46Z" fill="white" stroke="black" stroke-width="3"/>
<path d="M147.476 114.48C147.624 115.888 146.669 117.197 145.253 117.464L108.02 124.466C106.603 124.732 105.239 123.859 104.865 122.493L147.476 114.48Z" fill="black" stroke="black" stroke-width="2.76074"/>
<rect x="225.825" y="233.679" width="9.14724" height="5.83436" transform="rotate(9.21695 225.825 233.679)" fill="white" stroke="black" stroke-width="3"/>
<path d="M157.132 202.955C157.95 203.087 158.721 202.532 158.853 201.714C158.986 200.896 158.431 200.126 157.613 199.993L157.373 201.474L157.132 202.955ZM112.119 159.494C111.635 158.822 110.697 158.67 110.025 159.154L99.0736 167.048C98.4015 167.532 98.2494 168.47 98.7338 169.142C99.2182 169.814 100.156 169.966 100.828 169.482L110.563 162.465L117.579 172.2C118.064 172.872 119.001 173.024 119.673 172.54C120.345 172.055 120.497 171.118 120.013 170.446L112.119 159.494ZM157.373 201.474L157.613 199.993L125.578 194.795L125.338 196.276L125.098 197.756L157.132 202.955L157.373 201.474ZM108.799 173.33L110.28 173.571L112.383 160.611L110.902 160.371L109.422 160.131L107.319 173.09L108.799 173.33ZM125.338 196.276L125.578 194.795C115.493 193.159 108.644 183.656 110.28 173.571L108.799 173.33L107.319 173.09C105.417 184.811 113.377 195.854 125.098 197.756L125.338 196.276Z" fill="black"/>
<path d="M206.781 86.5884C205.963 86.4557 205.192 87.011 205.06 87.8288C204.927 88.6465 205.482 89.417 206.3 89.5497L206.54 88.069L206.781 86.5884ZM251.794 130.049C252.278 130.721 253.216 130.873 253.888 130.389L264.84 122.495C265.512 122.011 265.664 121.073 265.179 120.401C264.695 119.729 263.757 119.577 263.085 120.061L253.351 127.078L246.334 117.343C245.85 116.671 244.912 116.519 244.24 117.003C243.568 117.488 243.416 118.425 243.9 119.097L251.794 130.049ZM206.54 88.069L206.3 89.5497L238.335 94.7479L238.575 93.2673L238.816 91.7867L206.781 86.5884L206.54 88.069ZM255.114 116.213L253.633 115.972L251.53 128.932L253.011 129.172L254.491 129.412L256.594 116.453L255.114 116.213ZM238.575 93.2673L238.335 94.7479C248.42 96.3845 255.27 105.887 253.633 115.972L255.114 116.213L256.594 116.453C258.496 104.732 250.536 93.6886 238.816 91.7867L238.575 93.2673Z" fill="black"/>
<rect x="34.639" y="202.334" width="30.6645" height="25.2204" rx="5" transform="rotate(-15.4549 34.639 202.334)" fill="white" stroke="black" stroke-width="2" stroke-linejoin="round"/>
<path d="M38.1905 216.377L48.274 206.881C52.231 210.553 61.3941 216.669 61.3941 216.669C61.3941 216.669 66.5998 211.876 68.5781 210.093" stroke="black" stroke-width="2" stroke-linejoin="round"/>
<circle cx="59.0788" cy="203.188" r="1.8714" transform="rotate(-15.4549 59.0788 203.188)" fill="black"/>
<g clip-path="url(#clip0_134_1340)">
<path d="M250.14 46.2142C250.969 43.9647 251.384 42.8399 252.138 42.1421C252.802 41.5282 253.643 41.1402 254.541 41.0336C255.561 40.9124 256.686 41.327 258.935 42.156L260.999 42.9166C262.386 43.4275 263.079 43.6829 263.62 44.1156C264.099 44.4985 264.491 44.9798 264.768 45.527C265.081 46.1455 265.189 46.8762 265.406 48.3376L265.669 50.1121L272.422 52.6008C274.672 53.4298 275.797 53.8443 276.495 54.5987C277.108 55.2623 277.496 56.1032 277.603 57.0009C277.724 58.0214 277.31 59.1462 276.481 61.3957L274.112 67.8223C273.283 70.0719 272.869 71.1966 272.114 71.8945C271.451 72.5084 270.61 72.8964 269.712 73.0029C268.692 73.1241 267.567 72.7096 265.317 71.8806L250.054 66.2558C247.805 65.4268 246.68 65.0122 245.982 64.2578C245.368 63.5942 244.98 62.7533 244.873 61.8556C244.752 60.8351 245.167 59.7103 245.996 57.4608L250.14 46.2142Z" fill="white" stroke="black" stroke-width="3"/>
</g>
<path d="M45.4761 31.9185L45.8124 32.2337L46.2676 32.3056L50.8994 33.0372L47.693 36.4595L47.3778 36.7958L47.3059 37.251L46.5734 41.8831L43.152 38.6764L42.8157 38.3613L42.3605 38.2893L37.7275 37.5571L40.9351 34.1354L41.2503 33.7991L41.3222 33.3439L42.0535 28.7112L45.4761 31.9185Z" fill="black" stroke="black" stroke-width="3"/>
<defs>
<clipPath id="clip0_134_1340">
<rect width="34.2456" height="34.2456" fill="white" transform="translate(251.98 35.0308) rotate(20.23)"/>
</clipPath>
</defs>
</svg>
