<svg width="305" height="247" viewBox="0 0 305 247" fill="none" xmlns="http://www.w3.org/2000/svg">
<path d="M53.142 227.827L48.4172 123.713C48.3214 121.603 49.3419 119.598 51.1042 118.434L145.124 56.3344C147.017 55.0843 149.452 55.0084 151.419 56.138L244.557 109.633C246.336 110.655 247.47 112.514 247.563 114.564L252.292 218.79C252.443 222.1 249.881 224.905 246.571 225.056L59.4078 233.549C56.0975 233.699 53.2922 231.138 53.142 227.827Z" fill="#D9D9D9" stroke="black" stroke-width="3" stroke-linecap="round"/>
<path d="M74.1914 15.9611L80.5706 156.532C80.6808 158.96 82.245 161.082 84.5319 161.905L151.581 186.046C153.117 186.599 154.813 186.502 156.276 185.777L221.882 153.285C224.015 152.229 225.321 150.013 225.213 147.636L218.94 9.39231C218.79 6.08201 215.984 3.52026 212.674 3.67048L79.9133 9.69526C76.603 9.84548 74.0412 12.6508 74.1914 15.9611Z" fill="white" stroke="black" stroke-width="3" stroke-linecap="round"/>
<path d="M161.167 109.195L204.883 107.211M161.774 122.553L205.49 120.569M162.38 135.911L206.096 133.927" stroke="black" stroke-width="3" stroke-linecap="round"/>
<path d="M163.217 154.369L206.933 152.385M163.823 167.726L207.539 165.742M164.43 181.084L208.146 179.1" stroke="black" stroke-width="3" stroke-linecap="round"/>
<path d="M74.6914 26.9677L219.44 20.399" stroke="black" stroke-width="3" stroke-linecap="round"/>
<rect x="97.8892" y="108.214" width="51.4581" height="33.9537" rx="4.5" transform="rotate(-2.59834 97.8892 108.214)" fill="#FFA8BA" stroke="black" stroke-width="3"/>
<rect x="99.961" y="153.873" width="51.4581" height="33.9537" rx="4.5" transform="rotate(-2.59834 99.961 153.873)" fill="#FAAE2B" stroke="black" stroke-width="3"/>
<rect x="95.8624" y="42.1101" width="106.889" height="53.403" rx="4.5" transform="rotate(-2.59834 95.8624 42.1101)" fill="white" stroke="black" stroke-width="3" stroke-linejoin="round"/>
<path d="M98.037 72.6221L138.596 57.3721C148.556 66.4479 173.543 82.6051 173.543 82.6051C173.543 82.6051 194.394 74.9541 202.287 72.1258" stroke="black" stroke-width="3" stroke-linecap="round" stroke-linejoin="round"/>
<circle cx="179.144" cy="54.8384" r="5.34856" transform="rotate(-2.59834 179.144 54.8384)" fill="black"/>
<path d="M150.475 178.512C134.234 171.678 50.0674 136.375 49.5791 138.596C49.1219 140.675 52.5297 207.359 53.5908 227.862C53.7613 231.155 56.5576 233.679 59.8515 233.529L246.57 225.056C249.881 224.906 252.443 222.104 252.292 218.794L248.244 129.58C248.105 126.512 170.817 169.74 155.712 178.219C154.092 179.128 152.187 179.233 150.475 178.512Z" fill="white" stroke="black" stroke-width="3" stroke-linecap="round"/>
<rect x="211.466" y="174.991" width="92.3016" height="23.2566" rx="4.5" transform="rotate(14.8441 211.466 174.991)" fill="#FFA8BA" stroke="black" stroke-width="3"/>
<path d="M222.341 194.628C221.346 194.365 220.611 193.926 220.137 193.313C219.667 192.701 219.536 191.949 219.745 191.057L221.425 191.503C221.345 191.922 221.425 192.275 221.663 192.562C221.906 192.847 222.253 193.049 222.705 193.169C223.145 193.285 223.523 193.285 223.837 193.168C224.154 193.052 224.353 192.843 224.433 192.542C224.506 192.267 224.441 192.024 224.237 191.813C224.035 191.598 223.724 191.378 223.304 191.152L222.465 190.694C221.819 190.346 221.343 189.938 221.038 189.472C220.738 189.004 220.668 188.467 220.829 187.861C220.96 187.365 221.209 186.967 221.576 186.668C221.943 186.364 222.387 186.171 222.908 186.09C223.434 186.005 223.996 186.042 224.594 186.201C225.204 186.362 225.708 186.608 226.108 186.938C226.508 187.268 226.785 187.652 226.94 188.09C227.099 188.529 227.118 188.992 226.996 189.479L225.322 189.035C225.377 188.708 225.308 188.422 225.113 188.178C224.919 187.933 224.614 187.756 224.199 187.646C223.777 187.534 223.428 187.536 223.154 187.652C222.881 187.764 222.708 187.954 222.637 188.222C222.56 188.512 222.628 188.766 222.842 188.984C223.056 189.198 223.33 189.395 223.664 189.574L224.348 189.95C224.797 190.183 225.18 190.451 225.496 190.755C225.814 191.056 226.037 191.394 226.165 191.77C226.294 192.142 226.298 192.556 226.177 193.011C225.978 193.764 225.538 194.288 224.858 194.583C224.179 194.878 223.34 194.893 222.341 194.628Z" fill="black"/>
<path d="M233.966 188.805L235.696 189.263L234.285 194.584C234.126 195.182 233.845 195.67 233.443 196.046C233.041 196.419 232.552 196.663 231.975 196.777C231.399 196.892 230.771 196.859 230.092 196.678C229.409 196.497 228.845 196.214 228.401 195.829C227.961 195.445 227.658 194.992 227.494 194.469C227.331 193.942 227.329 193.379 227.488 192.781L228.899 187.461L230.629 187.919L229.256 193.096C229.131 193.566 229.18 193.994 229.404 194.38C229.629 194.762 229.993 195.019 230.496 195.153C230.999 195.286 231.443 195.243 231.828 195.023C232.213 194.799 232.468 194.452 232.593 193.982L233.966 188.805Z" fill="black"/>
<path d="M234.951 197.85L237.128 189.643L240.41 190.514C241.313 190.754 241.94 191.132 242.29 191.649C242.641 192.163 242.736 192.726 242.573 193.34C242.445 193.821 242.2 194.174 241.838 194.4C241.48 194.624 241.075 194.726 240.624 194.709L240.602 194.792C240.91 194.889 241.179 195.055 241.408 195.288C241.64 195.523 241.802 195.809 241.893 196.148C241.988 196.484 241.983 196.854 241.876 197.258C241.761 197.691 241.551 198.052 241.246 198.34C240.943 198.625 240.556 198.811 240.084 198.899C239.614 198.982 239.071 198.942 238.454 198.779L234.951 197.85ZM239.234 193.881C239.587 193.974 239.905 193.958 240.19 193.833C240.475 193.708 240.66 193.484 240.746 193.161C240.823 192.868 240.782 192.603 240.62 192.368C240.459 192.128 240.188 191.958 239.806 191.857L238.485 191.506L237.945 193.539L239.234 193.881ZM238.471 197.268C238.956 197.397 239.333 197.397 239.603 197.268C239.877 197.14 240.055 196.922 240.136 196.613C240.226 196.276 240.178 195.966 239.993 195.685C239.81 195.401 239.51 195.203 239.095 195.093L237.636 194.706L237.056 196.893L238.471 197.268Z" fill="black"/>
<path d="M245.418 200.75C244.423 200.486 243.688 200.047 243.214 199.434C242.744 198.822 242.613 198.07 242.822 197.178L244.502 197.624C244.422 198.043 244.501 198.396 244.74 198.683C244.982 198.968 245.33 199.17 245.781 199.29C246.222 199.407 246.599 199.407 246.913 199.289C247.231 199.173 247.43 198.965 247.51 198.664C247.583 198.388 247.518 198.145 247.314 197.934C247.112 197.719 246.801 197.499 246.381 197.274L245.542 196.815C244.895 196.467 244.42 196.06 244.115 195.594C243.815 195.125 243.745 194.588 243.906 193.982C244.037 193.486 244.286 193.089 244.653 192.789C245.02 192.485 245.464 192.293 245.985 192.211C246.51 192.126 247.072 192.163 247.671 192.322C248.28 192.484 248.785 192.729 249.185 193.06C249.585 193.39 249.862 193.774 250.017 194.212C250.176 194.651 250.194 195.114 250.073 195.6L248.399 195.156C248.454 194.829 248.385 194.543 248.19 194.299C247.995 194.055 247.691 193.878 247.276 193.768C246.853 193.656 246.505 193.657 246.231 193.773C245.957 193.885 245.785 194.076 245.714 194.344C245.637 194.634 245.705 194.888 245.919 195.105C246.133 195.319 246.407 195.516 246.741 195.695L247.425 196.071C247.874 196.304 248.257 196.573 248.573 196.877C248.89 197.177 249.113 197.515 249.241 197.891C249.371 198.263 249.375 198.677 249.254 199.132C249.054 199.885 248.615 200.409 247.935 200.704C247.256 200.999 246.416 201.015 245.418 200.75Z" fill="black"/>
<path d="M253.444 202.873C252.713 202.679 252.103 202.34 251.614 201.857C251.126 201.374 250.797 200.774 250.63 200.057C250.466 199.342 250.502 198.54 250.738 197.651C250.975 196.755 251.344 196.038 251.845 195.498C252.349 194.96 252.934 194.602 253.598 194.425C254.266 194.248 254.959 194.255 255.679 194.446C256.314 194.615 256.854 194.884 257.298 195.253C257.746 195.623 258.073 196.073 258.278 196.603C258.483 197.133 258.539 197.724 258.445 198.375L256.694 197.91C256.747 197.441 256.649 197.036 256.397 196.694C256.147 196.349 255.785 196.113 255.311 195.987C254.68 195.82 254.109 195.92 253.599 196.288C253.09 196.652 252.721 197.262 252.495 198.117C252.263 198.991 252.279 199.707 252.544 200.264C252.812 200.823 253.259 201.185 253.883 201.35C254.342 201.472 254.763 201.454 255.147 201.297C255.534 201.14 255.826 200.854 256.023 200.438L257.774 200.903C257.579 201.389 257.273 201.815 256.858 202.181C256.446 202.547 255.949 202.8 255.365 202.94C254.786 203.081 254.145 203.059 253.444 202.873Z" fill="black"/>
<path d="M258.281 204.038L260.458 195.832L263.685 196.688C264.618 196.935 265.276 197.371 265.661 197.996C266.049 198.622 266.136 199.34 265.92 200.152C265.771 200.713 265.519 201.161 265.163 201.495C264.808 201.825 264.371 202.028 263.852 202.103L264.747 205.753L262.83 205.245L262.049 201.925L260.782 201.589L260.01 204.497L258.281 204.038ZM261.151 200.195L262.325 200.506C263.316 200.769 263.92 200.493 264.136 199.678C264.244 199.271 264.204 198.926 264.015 198.644C263.827 198.362 263.481 198.154 262.978 198.021L261.81 197.711L261.151 200.195Z" fill="black"/>
<path d="M269.6 198.257L267.424 206.463L265.694 206.004L267.871 197.798L269.6 198.257Z" fill="black"/>
<path d="M268.856 206.843L271.032 198.637L274.315 199.507C275.218 199.747 275.845 200.125 276.195 200.643C276.546 201.156 276.64 201.72 276.478 202.333C276.35 202.814 276.105 203.167 275.742 203.394C275.384 203.617 274.98 203.72 274.529 203.702L274.507 203.785C274.815 203.882 275.083 204.048 275.312 204.282C275.545 204.516 275.706 204.803 275.797 205.141C275.893 205.477 275.887 205.847 275.78 206.251C275.665 206.684 275.456 207.045 275.151 207.334C274.847 207.619 274.46 207.805 273.989 207.892C273.519 207.976 272.975 207.936 272.358 207.772L268.856 206.843ZM273.139 202.874C273.491 202.967 273.81 202.952 274.095 202.827C274.379 202.702 274.564 202.478 274.65 202.155C274.728 201.861 274.686 201.596 274.525 201.361C274.364 201.122 274.093 200.952 273.711 200.85L272.389 200.5L271.85 202.532L273.139 202.874ZM272.376 206.262C272.861 206.39 273.238 206.39 273.508 206.261C273.781 206.133 273.959 205.915 274.041 205.607C274.131 205.269 274.083 204.96 273.898 204.679C273.714 204.394 273.415 204.197 273 204.087L271.54 203.7L270.96 205.886L272.376 206.262Z" fill="black"/>
<path d="M276.313 208.821L278.49 200.615L284.019 202.081L283.639 203.513L279.839 202.505L279.328 204.433L282.836 205.364L282.464 206.768L278.955 205.837L278.422 207.848L282.233 208.859L281.853 210.291L276.313 208.821Z" fill="black"/>
<path d="M284.355 208.172L285.716 202.531L287.544 203.016L285.936 208.591L284.355 208.172ZM283.685 209.875C283.76 209.592 283.912 209.389 284.142 209.265C284.375 209.142 284.636 209.119 284.926 209.196C285.22 209.274 285.436 209.423 285.574 209.645C285.715 209.867 285.748 210.119 285.673 210.402C285.598 210.685 285.444 210.889 285.21 211.016C284.981 211.14 284.719 211.163 284.425 211.085C284.135 211.008 283.919 210.858 283.778 210.636C283.641 210.411 283.61 210.157 283.685 209.875Z" fill="black"/>
<path d="M40.3547 46.7291C41.8205 45.09 44.3472 44.9752 45.9554 46.475C47.6993 48.1014 50.2485 48.5236 52.4237 47.5461C54.4295 46.6446 56.7846 47.5676 57.6438 49.5918C58.5755 51.787 60.7331 53.2102 63.1178 53.2019C65.3167 53.1944 67.0922 54.9949 67.0538 57.1936C67.012 59.5779 68.4042 61.7555 70.5862 62.7178C72.5983 63.6053 73.4881 65.9728 72.5585 67.9658C71.5507 70.127 71.9372 72.682 73.539 74.4486C75.0162 76.0777 74.8663 78.6029 73.2064 80.0456C71.4067 81.61 70.72 84.101 71.4648 86.3664C72.1517 88.4554 70.9881 90.7009 68.8851 91.3439C66.6046 92.0409 64.9639 94.0375 64.7228 96.4099C64.5006 98.5978 62.5235 100.176 60.3407 99.908C57.974 99.6174 55.6636 100.775 54.4785 102.844C53.3855 104.752 50.9375 105.389 49.0526 104.256C47.0086 103.028 44.427 103.145 42.5027 104.553C40.7282 105.852 38.2335 105.439 36.9721 103.638C35.6044 101.685 33.198 100.742 30.8672 101.246C28.7177 101.71 26.6057 100.317 26.1863 98.1587C25.7313 95.8179 23.9174 93.9781 21.5832 93.4905C19.4306 93.0408 18.0675 90.9098 18.5622 88.7671C19.0988 86.4437 18.1902 84.025 16.2563 82.63C14.4726 81.3436 14.0945 78.8424 15.4181 77.0861C16.8534 75.1817 17.006 72.6023 15.8064 70.5413C14.7002 68.6406 15.3728 66.2022 17.2963 65.1362C19.382 63.9801 20.5704 61.6854 20.3128 59.3147C20.0754 57.1285 21.6814 55.1745 23.8721 54.9829C26.2477 54.7752 28.2676 53.1624 28.9966 50.8919C29.669 48.7982 31.9308 47.6657 34.01 48.3817C36.2647 49.1581 38.7653 48.5068 40.3547 46.7291Z" fill="#FAAE2B" stroke="black" stroke-width="2"/>
<path d="M34.678 76.3871L37.9843 84.4471L36.5328 85.0426L31.0136 81.3851L30.9498 81.4113L33.029 86.4799L31.3595 87.1647L28.0532 79.1047L29.5206 78.5028L35.0186 82.1689L35.0877 82.1406L33.0085 77.072L34.678 76.3871Z" fill="white"/>
<path d="M39.3667 83.88L36.0604 75.8201L41.3986 73.6303L41.9755 75.0367L38.3069 76.5416L39.0835 78.4349L42.4704 77.0456L43.0362 78.425L39.6494 79.8143L40.4593 81.7888L44.1386 80.2795L44.7156 81.6859L39.3667 83.88Z" fill="white"/>
<path d="M47.7994 80.4209L42.228 73.29L44.0571 72.5397L47.667 77.5997L47.7361 77.5714L46.8803 71.3816L48.4488 70.7382L52.1877 75.7642L52.2621 75.7337L51.2668 69.5822L53.1011 68.8298L54.1371 77.8211L52.5048 78.4906L48.8388 73.8391L48.775 73.8653L49.437 79.7491L47.7994 80.4209Z" fill="white"/>
<path d="M60.2769 75.4352C59.3163 75.8292 58.4572 75.9204 57.6995 75.7088C56.9454 75.4957 56.3777 74.9597 55.9963 74.1008L57.618 73.4356C57.812 73.8278 58.093 74.0686 58.4609 74.1578C58.8308 74.242 59.2338 74.1946 59.6698 74.0158C60.0952 73.8413 60.3977 73.6098 60.5775 73.3212C60.7608 73.0311 60.7918 72.7382 60.6705 72.4425C60.5595 72.172 60.3575 72.0126 60.0644 71.9644C59.7698 71.9125 59.3848 71.9229 58.9095 71.9957L57.9541 72.1349C57.2211 72.246 56.589 72.204 56.0576 72.0091C55.5283 71.8091 55.1417 71.4116 54.8976 70.8166C54.6979 70.3297 54.6527 69.8511 54.762 69.3808C54.8699 68.9068 55.1075 68.4765 55.4748 68.0899C55.8442 67.6982 56.3178 67.3838 56.8955 67.1468C57.4839 66.9055 58.0401 66.7974 58.5639 66.8227C59.0878 66.8479 59.5467 66.9925 59.9407 67.2564C60.3382 67.5188 60.6382 67.8866 60.8405 68.3598L59.2242 69.0228C59.0671 68.7207 58.8354 68.5293 58.529 68.4485C58.2225 68.3678 57.869 68.4096 57.4685 68.5739C57.0609 68.7411 56.7827 68.9563 56.6339 69.2196C56.4837 69.4792 56.4626 69.7407 56.5706 70.0039C56.6874 70.2888 56.8985 70.455 57.2037 70.5026C57.5075 70.5465 57.8483 70.5394 58.2261 70.4813L59.0065 70.3697C59.5102 70.2853 59.9825 70.2706 60.4233 70.3257C60.8627 70.3772 61.2495 70.5176 61.5838 70.747C61.9166 70.9728 62.1747 71.3093 62.3582 71.7565C62.6614 72.4958 62.6314 73.1948 62.2681 73.8537C61.9047 74.5125 61.241 75.0397 60.2769 75.4352Z" fill="white"/>
<path d="M17.6947 229.267C19.4165 230.978 21.3914 232.237 23.4603 232.862L24.0075 233.027L23.7213 233.522C22.6385 235.392 22.0581 237.661 21.9723 240.087C20.2507 238.375 18.2767 237.117 16.208 236.492L15.6596 236.327L15.947 235.832C17.0299 233.962 17.609 231.693 17.6947 229.267Z" fill="black" stroke="black" stroke-width="3"/>
<path d="M278.43 17.7871C278.246 18.1352 278.099 18.5136 277.998 18.9228L277.535 20.7851H279.453C280.427 20.7851 281.386 20.9919 282.289 21.3642C281.963 21.4427 281.638 21.5475 281.317 21.6826L279.362 22.5049L280.789 24.0742C281.453 24.8042 281.989 25.665 282.377 26.5918C282.029 26.4076 281.651 26.2591 281.242 26.1572L279.379 25.6933V27.6133C279.379 28.5871 279.173 29.5447 278.802 30.4472C278.724 30.1231 278.621 29.7998 278.487 29.4804L277.664 27.5205L276.093 28.9521C275.36 29.6207 274.497 30.1593 273.57 30.5498C273.754 30.2018 273.902 29.8241 274.003 29.415L274.466 27.5527H272.548C271.574 27.5527 270.615 27.3453 269.711 26.9726C270.038 26.8941 270.363 26.7905 270.684 26.6552L272.639 25.833L271.212 24.2636C270.548 23.5333 270.011 22.6723 269.623 21.7451C269.971 21.9295 270.349 22.0786 270.759 22.1806L272.622 22.6445V20.7246C272.622 19.7505 272.827 18.7923 273.198 17.8896C273.276 18.2141 273.38 18.5377 273.514 18.8574L274.337 20.8174L275.908 19.3857C276.641 18.7173 277.503 18.1776 278.43 17.7871Z" fill="black" stroke="black" stroke-width="3" stroke-miterlimit="10"/>
</svg>
